<?xml version="1.0" encoding="UTF-8"?>
<svg xmlns="http://www.w3.org/2000/svg" version="1.1" viewBox="0 0 849.1 1080">
  <!-- Generator: Adobe Illustrator 29.8.1, SVG Export Plug-In . SVG Version: 2.1.1 Build 2)  -->
  <g id="kort">
    <path d="M638.4,548.1c5.1,12.6,12.3,24.2,22,33.2,5.2,6.2,4.9,23,8.9,26.7,6.8,5.5,18.2,1.8,25.5.7,7.2.3,36,12.7,41.8,17.6,13,22.4,5.7,64.2,4.2,89.7-2.3,18.3-3,31.5-20.1,41.4-23.9,13.9-54.6,8.6-78.4-3,0,0-49,1.3-49,1.3-.3,9.7-.6,19.7-.3,29.4s2.7,7.6-2.7,6.2c-34.9-15.4-30.4-20.5-32.4,26.2-.3,7-.6,26.3-3.9,31.4s-9.4,8.9-9.9,11.6c7.6,20.2-6.2,52.2-15,71.3-.5,1-.9,2.3-2.2,2.6-18.6-1.5-40.9,3.9-57.8-2.7-4.6-5.7-6.2-17.7-12.5-21.3,0,0-107.1,30.3-107.1,30.3-18.9-1.5-38.2,13.2-56.4,8.1-55.9-15.5-102.5-133.3-83.1-218,.5-2.3,10.8.1,13.9-.6,90.1-21.7,142.7-12.6,177.8-10,0,0,65.2-46.6,65.2-46.6,2.4-27.7,2.8-55.7,3.8-83.2.8-.6,15.5,2.8,19,2.4,28-4.4,59.4-14.5,87.3-21.1,7.9-2.9.4-12.2,2.2-14,0,0,59.2-9.5,59.2-9.5Z" fill="none" stroke="#fff" stroke-miterlimit="10" stroke-width="2"/>
    <path d="M213.2,729.6c28.4-61.8,86.5-104.3,125.7-158.5,6.9.2,19.6,4.2,27.3,2.5,11.4-11.7,17.5-31.1,25.8-46,10.5-27.3,28.7-55.6,30.5-85.2l15.7,12.3c25.5,2.6,42.4-5.3,61.8-20.8,28.3-16,37.2-58,49.2-86.1,3.5,6.9,9.1,13.3,9.3,21.4,17.1,10.2,23.7,52.1,31.4,71.1,13.3,30.6,20,69.9,40.4,96.3,2.8,2.7,7.7,4.1,7.3,9.3-1.2.9-62.7,9.9-63.2,12.2,0,2.7,2.3,11.2.4,12.8-26.6,5.8-58.3,18.1-85.1,21.3-5.9.6-13.9-2.1-20-2.7-6.1.2-2.5,8.4-2.3,12.1,0,24.2-2.3,48.7-3.1,72.8,0,0-62.8,44.9-62.8,44.9-.6-1.3,33.3-131.9,30.7-132.9,0,0-33.1-9.3-33.1-9.3-14.1,39.5-37.7,102.1-52.6,142.1" fill="none" stroke="#fff" stroke-miterlimit="10" stroke-width="2"/>
    <path d="M596.4,761.4s43.8-1.4,43.8-1.4c10.7,3.5,20.6,9.3,31.9,11,10.5,1.6,20.9-.1,31.4-.3.8,12.7,6.4,39.1,12.9,50.6,5.7,9.7,17.5,14.9,25,22.6s3.6,9.6-1.7,17c-1.1,1.6-3.5,7.3-4.5,7.9-12.3-.2-20.3-3.8-27.5,9.8-4.5,8.1-1.5,13.1-10.8,17.5-11.7,5.5-24.6,7.2-37.1,9.8-16.9,3.6-16.6,7.6-29.6,15.3-12.2,7.2-23.2,6.5-36,10.3-43.5,22.3-27.1,55.2-97.4,87.6-15.2,9.1-21.8,24.3-35.4,34.4-5.9,1-14.9-7.8-19.7-10.6-17-9.8-39.5-4-55.5-13.5-29.2-17.5-34.3-47.8-34.2-79.8,0-1,.2-3.3,1.3-3.8,0,0,101.5-28.9,101.5-28.9,6.5,3.7,8.1,16.5,12.7,21.5.6.7,1,1.2,1.9,1.5l60.8.7c8.7-24.8,25-49.4,17.4-76.5.5-2.5,8.1-8.5,9.8-11.6,6.5-17.1-.2-47.2,6.6-65.5,10.8.6,21.6,12.2,32.4,12.4v-38Z" fill="none" stroke="#fff" stroke-miterlimit="10" stroke-width="2"/>
    <path d="M289.8,257.4c-20.1,35.1,14.3,72.4,50,73.1,9.2.4,3.7,8.8.4,12.8s-2.7.6-2.1,3.1l14.5,2.1-6.9,42.8c-5.6-2.4-5.8-1.1-6.2-7.6-1.6.4.2,4.2-1.8,4.8s-2.8-1.7-4.3-2c-2.6-.5-13.2,6-16.2,7.7-9.2,7.2-22.3,12.5-31.6,18.8-3.7,2.8-2.2,5.4-3.6,9.2-1,.1-40.3,10-39.8,7.8-39.3-23.4-38.5-17.2-81.7-12.6l-2.9-21.6c-.9-3.4-5.8-1-7.5-2.2-2.7-6.7.7-13.4-2-20.1-4.2-23.7,6.6-34.4,22.4-50.8,10.6-7.6,19-22.4,33.9-17.2,23.3-3.3,32.8-28.8,61.8-37.7,3-2.1,4-6.1,6.9-8.2,0,0,16.6-2.4,16.6-2.4Z" fill="none" stroke="#fff" stroke-miterlimit="10" stroke-width="2"/>
    <path d="M312.4,178.5c-8.2,8.4-11.9,22.3-18.8,31.9-4.8,12.4-4.6,29.4-8.2,42.2-26.1,2-10.8,8.9-31.6,15.4-11.1,5.8-20.6,12.7-28.9,22.2-2.3,1.4-2-.6-3.1-1.7-3.6-3.7-10.8-8.6-10.9-13.7-4.9-1-12.1-11-14.4-14.9-2.2-5.1.8-5.5,2.4-8.8s4.6-12.4,8.3-14.9.9-.7,2-4.6,4-8.4,4.3-8.8c24.8.1,4.4-20.8-1.3-31.8-2.6-5.7-.2-12.7-6.9-15.8-2.2,1.5-6.8,5.9-9.2,3.2-9.2-16.4-18.1-33.2-24.4-50.9,2.8-1.1,3,1.8,3.8,2,9.3-1.6,19.5.3,29,.8,2.6.2,9.6,2.4,11.4,1.1,2.4-6.7,16.3-40.7,21.8-42.4,18.9.2,40-.6,58.2,5,6.2,3,2.8,8,6.2,11.8,4.2,2,8.1,5,11.8,8.3-25,26.1,2.7,34.7-1.6,64.3Z" fill="none" stroke="#fff" stroke-miterlimit="10" stroke-width="2"/>
    <path d="M432.8,121.4c-4.2,10.5,11.8,44.1,14.6,54.9.2,3.4-4.1,5-5.1,7.5s1.7,5.2-2.5,7.8c3.7,3.9.6,2.8-2.2,6.1-1.7,2.9.8,4.7-4.5,4.6-6.8-2.4-7.2,3-8.6,7.9,0,1.1,1.8,2.2,1.4,3.8-3.9.2-2.1,1.9-3.1,4.1-.5,1.4-3.8,2.3-2.8,4.2,4.3,2.5,5.7,5.8.4,7.9,2.7,2.5-1.3,5.4,3.5,6.3-.9,5.2,3.8,9.4.7,14.3,3.5,5.1,1.9,4.1-2.8,6l-1-4c-3.1-.6-15.2,8.8-17.7,11.2s-12.8,17.2-14.1,16.9l-2.3-2.4c1.3-1.5,2.1-3.8.2-5.2l-2.8,3.4c-6.2-5.4-12.5-11.1-19.7-15.2,4.9-15.1,5.6-29.2,6.9-45.2.2-3.1,3.4-14.5-.5-15.5-3.4-.5-11.5,16.7-16.1,17.2-5.4-13.4-2.7-29.7-13.1-41,7.7-9.1,52.1-44,34.1-53.6-1.6-3.2-.9-11.2-6.6-8.3.3-17.7,5.4-35.4,8.2-52.9,0,0,6.3,0,6.3,0,.3,12.5,20.4,14.8,29.7,20,2.1,12.3,3.4,24.9,5.8,37,4,2.7,9,2,13.5,2.1Z" fill="none" stroke="#fff" stroke-miterlimit="10" stroke-width="2"/>
    <path d="M379.4,389.5c7,7.4,15.3,23.8,17.6,33.2-7.8,11.8-16.7,29.8-25.5,40.2-4.5,2.8-8.6,4.3-9.2-2.4-.6-.4-8.5-.2-9.6.3-4.6,2.1-3.2,8.8-5.2,12.7-7.9,11.8-27.9,8.9-38.7,14.8-4.7,12-18.6,14.9-29.2,19.5-2.6,1.3-13,10.1-15.3,8.3-7.2-20.2-11.9-41.6-10.9-63.1,2.7-2.2,15-1.9,16.1-4.3s-5.1-15.5-3.8-19.3c4.7.2,15.1-2.7,18.9-4.2,3.5-2,.4-6.3,3-8.9,8-6.1,22.9-12.7,32.3-17.2,5.6-3.7,13.9-11.8,18.8-3.7.4,1.2-.5,3.6.8,3.6v-4.1c18.3,5.2,1.7-2.7,18.6-7.3,6.7-1.1,5.7,4.9,7.3,5.2s1.9-3,2.8-4.1c3-3.8,8.1-1.8,11.1.9Z" fill="none" stroke="#fff" stroke-miterlimit="10" stroke-width="2"/>
    <path d="M296,504.5c7.9-2.3,11.9-8.2,15.9-14.9,16-2.1,40.7-4,41.8-24.5,9.8-5.9.5,6.4,17.1,4.1-7.6,6.9-16.9,18-12.9,27.4-16.2,48.4-44.4,98.1-90.9,123.1,0-5,4.2-9.4,3.6-14.7.9-3.3,5.1-10,.9-13-7.2-2.9-7.1,6.2-16.1-.5-12.4.9-11.9-1.9-13.8-13.1-.8-5.4-2.3-8.2,2.9-11.3,2.7-4.2-.3-9.2-.4-13.4,5.1-13.5-10.4-28-16.5-39,7.5-.1,23.7,5.7,32.4-.7l3.1,6.8,6.6-2.7" fill="none" stroke="#fff" stroke-miterlimit="10" stroke-width="2"/>
    <path d="M295.7,549.4" fill="none" stroke="#fff" stroke-miterlimit="10" stroke-width="2"/>
    <path d="M339.3,183c8.8,10.9,4,28.5,12.3,39.8,6.1,7.2,10.4-6.2,14.9-8.3-1.1,16.1-4,32.8-7.5,48.5l22.7,18.8c-2.2,1.6-4.3-1.6-6.5-1s-1.6,2.1-.4,3.1,4.9.7,5.2.7c1.4-.2,3.7-2.4,5.9,0l-34.3,59.5-5.1-1.6c8.5-19.9-6.9-12-16.3-18.9-6.8,5.9-24.4-11-29.7-15.9-31.3-29.5,12.5-63.4-9.3-55.9,1.8-13.8,3.6-31.8,9.8-44.3,2.1-3.6,14.7-11.2,18.9-14.4s13.7-15.7,19.5-10.1Z" fill="none" stroke="#fff" stroke-miterlimit="10" stroke-width="2"/>
    <path d="M482.4,292.7c1.6,62.2-38.3,86.5-80.2,123.5-.7.4-.1,1.6-1.2,1.4-5.5-12.1-14.9-31.9-28.3-35.5,2.5-36.7,27.4-68.6,49.6-97,2.7,1,14.8-5.1,15.6-4.8,2.7,4.8,12.5,5.7,17.9,7.7,1.4.5,3.9,2.4,4.4,2.5,6-4.7,15.7.2,22.2,2.3Z" fill="none" stroke="#fff" stroke-miterlimit="10" stroke-width="2"/>
    <path d="M250.7,449.5c-5.7,17.9,3.9,40.6,7.1,58.4-4.2,14.2-27.6.7-38.3,2.1l1,4.1-30.5-14c-2-7.1-4.8-14-6.9-21.1s-5.5-14.9-5.1-19.9l13.3-40.9s16.5-1.9,16.5-1.9l35.9,18,16.6-3.5c9.2,21,5,12.5-9.5,18.5Z" fill="none" stroke="#fff" stroke-miterlimit="10" stroke-width="2"/>
    <path d="M388.5,652.7" fill="none" stroke="#fff" stroke-miterlimit="10" stroke-width="2"/>
    <path d="M399.2,652.9" fill="none" stroke="#fff" stroke-miterlimit="10" stroke-width="2"/>
    <path d="M375.4,502.2" fill="none" stroke="#fff" stroke-miterlimit="10" stroke-width="2"/>
    <path d="M384.9,521.8c5.7-2.7-10.1-7.8-7.7-5.6" fill="none" stroke="#fff" stroke-miterlimit="10" stroke-width="2"/>
    <path d="M388.7,466.3c2.9-5,11.6-22.1,18.3-30,9.8-12.4,8.2-5.2,11.9,5.7,1.6,15.6-10.9,36.7-16.9,51.4s-15.2,38.9-25.6,58.7c-1.6,3-8.9,17.5-10.5,18.5-3.6,1.2-25.6.1-24.1-4.7" fill="none" stroke="#fff" stroke-miterlimit="10" stroke-width="2"/>
    <path d="M503.2,375.5c0,1.1,1.2,1.4,2.1,1.3" fill="none" stroke="#fff" stroke-miterlimit="10" stroke-width="2"/>
    <path d="M511.5,328.9s34,16.1,34,16.1c.6.3.9,1,.6,1.6-10.9,21.2-13.1,45.9-29.3,64.5-2.6,1.8-8.9-5.3-9.7-6.1-2.2-1.7.4-22.6-4-16.7-.5,2.8,2.1,14.4-2.2,13.1-39.3-35.3-43.4-18.8-15.3-49.4,2.3-1.8,2.9,2.8,3.7,3.8,4,5.8,15.6-27.5,22.1-26.9" fill="none" stroke="#fff" stroke-miterlimit="10" stroke-width="2"/>
    <path d="M378.2,320.9c5-1.9,6.9,2.6,6.9,6.9l1.3-3.1h2.1c0,0-7.9,14-7.9,14-3-2.9-3.4,2.8.3.9v1.4s-2.8.7-2.8.7c1.2,3-.2,6.8-2.4,9l-.8-1.4c-3.2,1.4-5.4-.9-8.8,0-1.6-.5-1.1-2.7-1.1-4.1-1.4,4.8-7.2,2.3-6.9-2.1h2.1c-1.8-4,2.6-7.1,2.9-11h2c-1.1-2,.8-5.8,2.2-7.3s2.3.2,3.3-1.4l-1.4-2.1c2.2-.9,1.6-4.3,3.8-5.9.9,2.3,1.7,1.7,3.8,1.7l1.4,3.8Z" fill="none" stroke="#fff" stroke-miterlimit="10" stroke-width="2"/>
    <path d="M365.1,354.7c1-4.2,4-1.5,4.2,1.4,1.3,0,.5-2.1,2.4-2.1s2.1,1.1,2.3,1.9c-.4,3.1-1.3,15.1-5.4,16.4l1.4,1.4c-2.5,17.7-4.8,5.3-18.7,10,0,0,5.2-32.5,5.2-32.5,4.7.3,5.9-1.3,8.6,3.5Z" fill="none" stroke="#fff" stroke-miterlimit="10" stroke-width="2"/>
    <path d="M396.2,287.7c5.4.7-.8,18.5,4.7,13.3.6-2-1.3-6.8,1.8-8.5,2,2-.3,5.8,2.4,6.6l-2.2,4.4-4-.6c.7,4-1,6.8-2.1,10.3-1-.2-2-3.4-3.4-2.1s2.1,2.7,0,6.6-1.9,1.3-3.1,1.3c-8.5,3.5-2.2-19.4-3.7-24l1.9-1.2c-1,1.8,1.2,4.7,1.1,5.2,0,.8-3.1,3.1,1.6,3.1v-10.4s-2.8-.7-2.8-.7l2.8-.4c-.2-1.9.1-3.7,2.1-4.4.5,7.1.6,14.5.3,21.4,3.3,9.9,2-18.1,2.4-20ZM391.3,302.9c-5.1-.2-.3,3.7-2.1,6.9,2.8-1.4,1.8-4.5,2.1-6.9Z" fill="none" stroke="#fff" stroke-miterlimit="10" stroke-width="2"/>
    <path d="M384.4,316.7l-5.2-2.8,1.1-2.8-2.1,2.1-2.8-1.8,2.4-3.8.3,2.1,1.8-.7c2.7-17.1,4.7-5.2,4,2.5,0,1.4,1.6,2.8.4,5Z" fill="none" stroke="#fff" stroke-miterlimit="10" stroke-width="2"/>
    <path d="M414.1,264.3v22.4c0,.2-1.9,1.8-1.4,3.1h-.7s0-25.5,0-25.5h2.1Z" fill="none" stroke="#fff" stroke-miterlimit="10" stroke-width="2"/>
    <path d="M418.9,265.7c-.5,2.2,1.5,16.7-2.1,17.3,0,0,0-17.3,0-17.3h2.1Z" fill="none" stroke="#fff" stroke-miterlimit="10" stroke-width="2"/>
    <path d="M269.8,595c-.4,7.8-2.2,6.4-8.3,3.1l8.3-3.1Z" fill="none" stroke="#fff" stroke-miterlimit="10" stroke-width="2"/>
    <path d="M599.1,329.9c18.7,48.6,27.2,12.7,37.2,48.1-1.5,6.7-9.1,12-11.3,18.7-6.9,6.8-10.7,16.5-13.8,25.6-12.5-1.8-13.6-24.8-18.6-34.5-5.1-13.7-13.9-25.4-20.9-37.7,1.2-2.4,14.2-10.8,17.8-11.4-2.6-2.8,8.1-9,9.6-8.9Z" fill="none" stroke="#fff" stroke-miterlimit="10" stroke-width="2"/>
    <path d="M634,483.5c21.1,15.3,6.7,21.5,5.9,41.7,0,0-5.9-5.5-5.9-5.5-2-4.8-8.1-5.9-6-11.5,1.1-2.9,5.6-5.2,5.5-9-.1-2.6-3.5-6.1-3.8-8.3.8-2.9-1.3-19.5,4.3-7.4Z" fill="none" stroke="#fff" stroke-miterlimit="10" stroke-width="2"/>
    <path d="M626.1,484.5c-7.2-4.9-22.7-33.5-14.8-41.4l1.3.7,13.5,27.9v12.8Z" fill="none" stroke="#fff" stroke-miterlimit="10" stroke-width="2"/>
    <path d="M183.3,234.7c1.3,2.4-.5,4.8-2.6,5.7-8.4,1.5-5.4-13.7,2.6-5.7Z" fill="none" stroke="#fff" stroke-miterlimit="10" stroke-width="2"/>
    <path d="M170.2,154.7c2.2,3.9-.9,5.1-4.2,5.9-7.7-3.4-.8-11.1,4.2-5.9Z" fill="none" stroke="#fff" stroke-miterlimit="10" stroke-width="2"/>
    <path d="M156.4,314.2c3.2,2,.8,7.3-2.8,7.3-6.1-2.8-2.5-10.7,2.8-7.3Z" fill="none" stroke="#fff" stroke-miterlimit="10" stroke-width="2"/>
    <path d="M157.8,124.9c1,7-9.4,7.5-7.3.4s5-2.4,7.3-.4Z" fill="none" stroke="#fff" stroke-miterlimit="10" stroke-width="2"/>
    <path d="M177.8,223.7c7.1-1.8,7.5,5.6,1.1,7.4-3.4-.5-4.3-6.4-1.1-7.4Z" fill="none" stroke="#fff" stroke-miterlimit="10" stroke-width="2"/>
    <path d="M333.1,162.9c4.6-1.3,6.3,6.8,1.2,7.5s-5.7-6.3-1.2-7.5Z" fill="none" stroke="#fff" stroke-miterlimit="10" stroke-width="2"/>
    <path d="M150.5,158.5c-1.6-2.8,2.8-6.2,5.3-5,5.7,3.9-1,10.4-5.3,5Z" fill="none" stroke="#fff" stroke-miterlimit="10" stroke-width="2"/>
    <path d="M165.4,143.6c4.4-1,6.3,1.8,4.4,5.8-5.5,2.1-10.9-2.4-4.4-5.8Z" fill="none" stroke="#fff" stroke-miterlimit="10" stroke-width="2"/>
    <path d="M435.3,93.2c6.6-2,6.1,9.1.2,7.2s-2.7-6.4-.2-7.2Z" fill="none" stroke="#fff" stroke-miterlimit="10" stroke-width="2"/>
    <path d="M143.8,124.5c1.6,1.9,1.5,4.4-1,5.5-7.5,3.4-5.4-13,1-5.5Z" fill="none" stroke="#fff" stroke-miterlimit="10" stroke-width="2"/>
    <path d="M332.4,153.2c3.7-1.1,6.7,3.5,4.4,5.8-4.8,4.7-10.1-4.1-4.4-5.8Z" fill="none" stroke="#fff" stroke-miterlimit="10" stroke-width="2"/>
    <path d="M125.7,223.7c4.6-2.5,8.6,2.3,4.7,6.4-3.3,2.3-7.7-3.4-4.7-6.4Z" fill="none" stroke="#fff" stroke-miterlimit="10" stroke-width="2"/>
    <path d="M128,272.7c3.3-.5,5,6.2,1.8,7.3-7,2.4-6.4-6.6-1.8-7.3Z" fill="none" stroke="#fff" stroke-miterlimit="10" stroke-width="2"/>
    <path d="M178.4,253.3c6.9-2.4,6.3,9.5.5,6.8s-3-6-.5-6.8Z" fill="none" stroke="#fff" stroke-miterlimit="10" stroke-width="2"/>
    <path d="M358,133.2c6-1.8,7.4,8.9,0,6.7-3.4-1-2.9-5.8,0-6.7Z" fill="none" stroke="#fff" stroke-miterlimit="10" stroke-width="2"/>
    <path d="M170.3,164.3c2.5,7.6-9.7,6.3-7.1.6,1.4-3.2,4.8-1.9,7.1-.6Z" fill="none" stroke="#fff" stroke-miterlimit="10" stroke-width="2"/>
    <path d="M157.8,165c.9,1.5-1,3.9-1.9,5.1-9.7,1.5-5.8-10.3,1.9-5.1Z" fill="none" stroke="#fff" stroke-miterlimit="10" stroke-width="2"/>
    <path d="M166.1,193.3c2.8-.7,5.3,2.3,3.6,5.1-3.7,6.4-10.7-3.3-3.6-5.1Z" fill="none" stroke="#fff" stroke-miterlimit="10" stroke-width="2"/>
    <path d="M332.4,133.2c4.8-1.4,7,5.3,2.5,6.7-4.8,1.4-7-5.3-2.5-6.7Z" fill="none" stroke="#fff" stroke-miterlimit="10" stroke-width="2"/>
    <path d="M349.7,159.2c-1.7,2.9-7.8,1.4-6.7-3.5,2.8-5.2,8.5-1.2,6.7,3.5Z" fill="none" stroke="#fff" stroke-miterlimit="10" stroke-width="2"/>
    <path d="M165,203c2.6-1.5,6,2.1,5,4.6-2.4,6.6-9.8.8-5-4.6Z" fill="none" stroke="#fff" stroke-miterlimit="10" stroke-width="2"/>
    <path d="M333.1,102.8c4.5-1.1,6.4,7.7.5,7.5s-4.6-6.5-.5-7.5Z" fill="none" stroke="#fff" stroke-miterlimit="10" stroke-width="2"/>
    <path d="M181.3,263c2.3,2.2,1.9,7.2-1.6,7.5-6.2.5-3.8-8.6,1.6-7.5Z" fill="none" stroke="#fff" stroke-miterlimit="10" stroke-width="2"/>
    <path d="M349.7,94.6c1.6,2.7-1.8,8-5.2,5.2-5-4.2,2.8-9.3,5.2-5.2Z" fill="none" stroke="#fff" stroke-miterlimit="10" stroke-width="2"/>
    <path d="M138,119.2v-5.3c9-3.6,8.9,8.9,0,5.3Z" fill="none" stroke="#fff" stroke-miterlimit="10" stroke-width="2"/>
    <path d="M358,123.6c6-1.8,6.4,5.6,2.5,6.7s-7.2-5.2-2.5-6.7Z" fill="none" stroke="#fff" stroke-miterlimit="10" stroke-width="2"/>
    <path d="M153.6,143.6c2.9-.6,5.4,2.4,3.7,5.1-3.6,5.5-11.3-3.6-3.7-5.1Z" fill="none" stroke="#fff" stroke-miterlimit="10" stroke-width="2"/>
    <path d="M163.7,265.2c4-4.8,9.8,2.6,4.6,5s-7.1-2-4.6-5Z" fill="none" stroke="#fff" stroke-miterlimit="10" stroke-width="2"/>
    <path d="M130.3,162.8c-.1,1.4,2,3.9,1.8,4.8-.9,3.4-5.1,3.8-6.9.7-1.3-2.3,3.2-6.8,5.1-5.4Z" fill="none" stroke="#fff" stroke-miterlimit="10" stroke-width="2"/>
    <path d="M127.4,113.2c5.5-1.1,4.6,6,2.5,6.7-5,1.7-7.6-5.6-2.5-6.7Z" fill="none" stroke="#fff" stroke-miterlimit="10" stroke-width="2"/>
    <path d="M204,213.3c6.3-2.2,6.8,8,.6,6.8s-3.1-5.9-.6-6.8Z" fill="none" stroke="#fff" stroke-miterlimit="10" stroke-width="2"/>
    <path d="M319.3,123.6c6-1.8,6.4,5.6,2.5,6.7s-6.2-5.5-2.5-6.7Z" fill="none" stroke="#fff" stroke-miterlimit="10" stroke-width="2"/>
    <path d="M332.4,123.6c2.9-.8,6,1.8,4.7,4.7-2.7,6-11.2-2.8-4.7-4.7Z" fill="none" stroke="#fff" stroke-miterlimit="10" stroke-width="2"/>
    <path d="M362.9,64.9c1,1.7-.6,4.8-2.4,5.3-7.7.6-3.8-11.9,2.4-5.3Z" fill="none" stroke="#fff" stroke-miterlimit="10" stroke-width="2"/>
    <path d="M332.4,143.6c7.6-2.2,6.1,10.3-1.8,5-1-2.2-.5-4,1.8-5Z" fill="none" stroke="#fff" stroke-miterlimit="10" stroke-width="2"/>
    <path d="M359.9,103c2.6.2,4.3,3.6,2.1,6-5,5.4-9.1-6.6-2.1-6Z" fill="none" stroke="#fff" stroke-miterlimit="10" stroke-width="2"/>
    <path d="M362.2,113.9c4.7,4.1-5.4,9.9-6,2.9s3.9-4.7,6-2.9Z" fill="none" stroke="#fff" stroke-miterlimit="10" stroke-width="2"/>
    <path d="M349.7,128.8c-.7,2.2-5.2,2.1-6.3-.5-2.5-5.4,8.9-7.5,6.3.5Z" fill="none" stroke="#fff" stroke-miterlimit="10" stroke-width="2"/>
    <path d="M349.7,134.6c2.8,5-6.2,8.3-6.8,2.2s5.3-4.8,6.8-2.2Z" fill="none" stroke="#fff" stroke-miterlimit="10" stroke-width="2"/>
    <path d="M130.8,314.2c4,3.2-2.6,8.1-5.7,4.6-2.1-4.2,2.3-7,5.7-4.6Z" fill="none" stroke="#fff" stroke-miterlimit="10" stroke-width="2"/>
    <path d="M345.6,143.6c5-1.5,6.2,5.8,1.7,6.7s-6-5.4-1.7-6.7Z" fill="none" stroke="#fff" stroke-miterlimit="10" stroke-width="2"/>
    <path d="M140.5,313.4c4.8-.7,5.9,6.1,1.2,6.8s-5.3-6.2-1.2-6.8Z" fill="none" stroke="#fff" stroke-miterlimit="10" stroke-width="2"/>
    <path d="M345.6,103.5c4.7-1.3,6.4,5.8,1.7,6.7s-5.9-5.6-1.7-6.7Z" fill="none" stroke="#fff" stroke-miterlimit="10" stroke-width="2"/>
    <path d="M332.1,93.2c3.8-2.2,8.2,5.1,2.8,6.6s-5.1-5.3-2.8-6.6Z" fill="none" stroke="#fff" stroke-miterlimit="10" stroke-width="2"/>
    <path d="M349.7,88.8c-1.6,2.8-7.7,1.2-6.6-2.8s9.4-2,6.6,2.8Z" fill="none" stroke="#fff" stroke-miterlimit="10" stroke-width="2"/>
    <path d="M131,283.7c.9,2.3.6,4-.8,6-7.7,2.6-7.7-8.5.8-6Z" fill="none" stroke="#fff" stroke-miterlimit="10" stroke-width="2"/>
    <path d="M324.2,134.6c2.3,4-5.4,9.2-6.7,2.2s5.4-4.4,6.7-2.2Z" fill="none" stroke="#fff" stroke-miterlimit="10" stroke-width="2"/>
    <path d="M320,153.2c3.9-1.1,6.7,5.8,1.7,6.7s-5.4-5.7-1.7-6.7Z" fill="none" stroke="#fff" stroke-miterlimit="10" stroke-width="2"/>
    <path d="M426.4,73.9c2,2-.2,8.4-4.7,5.7s1.1-9.3,4.7-5.7Z" fill="none" stroke="#fff" stroke-miterlimit="10" stroke-width="2"/>
    <path d="M426.4,59.1c-1.5,2.5-5.9.9-6-2.3.6-6.7,8.5-4.2,6,2.3Z" fill="none" stroke="#fff" stroke-miterlimit="10" stroke-width="2"/>
    <path d="M357.6,93.2c3.8-2.2,8.2,5,2.8,6.6-5,1.5-5.1-5.3-2.8-6.6Z" fill="none" stroke="#fff" stroke-miterlimit="10" stroke-width="2"/>
    <path d="M139.5,170.2c-4.8-5.6,2.4-11.4,4.4-4s-1.2,4.7-4.4,4Z" fill="none" stroke="#fff" stroke-miterlimit="10" stroke-width="2"/>
    <path d="M152.9,323.8c3.3-1,6.7,2.4,3.3,5.4-4.3,4.3-8.2-3.3-3.3-5.4Z" fill="none" stroke="#fff" stroke-miterlimit="10" stroke-width="2"/>
    <path d="M144.6,268.3c-.6,1.6-5.6,3.7-6.6.4-2.2-7.2,8.6-5.8,6.6-.4Z" fill="none" stroke="#fff" stroke-miterlimit="10" stroke-width="2"/>
    <path d="M153.6,193.3c2-.4,6,3.3,3,5.8-4.5,3.8-9.6-4.5-3-5.8Z" fill="none" stroke="#fff" stroke-miterlimit="10" stroke-width="2"/>
    <path d="M333.1,73.2c4.5-.6,6,6.1,1.2,6.8s-5.3-6.2-1.2-6.8Z" fill="none" stroke="#fff" stroke-miterlimit="10" stroke-width="2"/>
    <path d="M130.2,139.9c-4,2-7-5.1-4-6.4,5.4-1.8,6.6,2.4,4,6.4Z" fill="none" stroke="#fff" stroke-miterlimit="10" stroke-width="2"/>
    <path d="M126.7,193.3c4.5-1.4,6.6,3.3,3.6,5.7-4.5,3.5-7.8-4.4-3.6-5.7Z" fill="none" stroke="#fff" stroke-miterlimit="10" stroke-width="2"/>
    <path d="M331.7,113.9c1.7-.3,4.6-.5,5.4,1.3,1.4,8.1-11.2,4.5-5.4-1.3Z" fill="none" stroke="#fff" stroke-miterlimit="10" stroke-width="2"/>
    <path d="M319.3,143.6c6.4-1.9,7.1,7.1.6,6.1s-3.3-5.3-.6-6.1Z" fill="none" stroke="#fff" stroke-miterlimit="10" stroke-width="2"/>
    <path d="M139.1,193.3c2.3-.8,4.6.4,5.7,2.4l-3.8,5.1c-1.9.4-4.9-6.5-1.9-7.5Z" fill="none" stroke="#fff" stroke-miterlimit="10" stroke-width="2"/>
    <path d="M143.2,159.1c-4.4,6-9.2-7.5-1.5-6s2.8,4.3,1.5,6Z" fill="none" stroke="#fff" stroke-miterlimit="10" stroke-width="2"/>
    <path d="M413.2,53.9c1.9,2.8.7,6.5-2.8,6.7-4.8-2.7-2.7-9.5,2.8-6.7Z" fill="none" stroke="#fff" stroke-miterlimit="10" stroke-width="2"/>
    <path d="M92.2,113.9c3.3,2.8-1.8,9-4.7,5.7s1.4-8.6,4.7-5.7Z" fill="none" stroke="#fff" stroke-miterlimit="10" stroke-width="2"/>
    <path d="M319.3,83.5c6.4-1.9,7.1,7.1.6,6.1-3.2-.5-3.3-5.3-.6-6.1Z" fill="none" stroke="#fff" stroke-miterlimit="10" stroke-width="2"/>
    <path d="M139.8,133.2c2.4-.7,4.4.7,5.1,3l-3.9,3.8c-3.6,0-4.4-5.5-1.2-6.8Z" fill="none" stroke="#fff" stroke-miterlimit="10" stroke-width="2"/>
    <path d="M92.2,104.3c4.7,4.7-7.5,11.4-5.3,0,1.4-.8,4-1.2,5.3,0Z" fill="none" stroke="#fff" stroke-miterlimit="10" stroke-width="2"/>
    <path d="M410.4,62.8c6,1,4,9.7-1.1,7.2s-1.5-6.2,1.1-7.2Z" fill="none" stroke="#fff" stroke-miterlimit="10" stroke-width="2"/>
    <path d="M143.8,215.7c4.4,2.7-3.9,6.4-5.5,3.8-1.8-2.5,1.6-9.4,5.5-3.8Z" fill="none" stroke="#fff" stroke-miterlimit="10" stroke-width="2"/>
    <path d="M203,204.4c4.1-3.3,7.1,2.8,4.7,5.7-4.4,1.7-6.9-1.9-4.7-5.7Z" fill="none" stroke="#fff" stroke-miterlimit="10" stroke-width="2"/>
    <path d="M125.7,128.8c-2.4-3,0-6.9,3.9-5.7,3.7,2.6.2,10-3.9,5.7Z" fill="none" stroke="#fff" stroke-miterlimit="10" stroke-width="2"/>
    <path d="M345.5,53.1c5.3-1.8,6.2,9.5-.4,6.5s-1.7-5.8.4-6.5Z" fill="none" stroke="#fff" stroke-miterlimit="10" stroke-width="2"/>
    <path d="M362.2,79.1c-2.6,2.6-7.6-.3-5.7-4s9.3.4,5.7,4Z" fill="none" stroke="#fff" stroke-miterlimit="10" stroke-width="2"/>
    <path d="M114.3,193.3c5.4-1.6,4.4,6.7,1.8,7.4-4.4.8-5-6.4-1.8-7.4Z" fill="none" stroke="#fff" stroke-miterlimit="10" stroke-width="2"/>
    <path d="M157.9,138.5c-1.3,2.3-9.2,1.9-7.4-2.9,1.7-4.5,9.1,0,7.4,2.9Z" fill="none" stroke="#fff" stroke-miterlimit="10" stroke-width="2"/>
    <path d="M320,103.5c5.9-1.2,6,7.1-.1,6.1s-3.7-5.3.1-6.1Z" fill="none" stroke="#fff" stroke-miterlimit="10" stroke-width="2"/>
    <path d="M357.6,39.7c-2.8-1.6-1.2-7.8,2.8-6.7s1.1,8.9-2.8,6.7Z" fill="none" stroke="#fff" stroke-miterlimit="10" stroke-width="2"/>
    <path d="M176.1,198.5c-1.5-2.7,1.3-4,3.1-5.3,7.4,1.1,2.5,10.7-3.1,5.3Z" fill="none" stroke="#fff" stroke-miterlimit="10" stroke-width="2"/>
    <path d="M150.4,269.7c-2-8.5,9.8-5.3,6.9-1s-4.3,1.5-6.9,1Z" fill="none" stroke="#fff" stroke-miterlimit="10" stroke-width="2"/>
    <path d="M324.2,64.9c2.3,3.9-5.2,8.1-6.7,2.8s5.1-5.6,6.7-2.8Z" fill="none" stroke="#fff" stroke-miterlimit="10" stroke-width="2"/>
    <path d="M320,73.1c2.7-.7,5.4,2.4,3.7,5.1-3.6,5.5-9.6-3.5-3.7-5.1Z" fill="none" stroke="#fff" stroke-miterlimit="10" stroke-width="2"/>
    <path d="M127.4,263.7c2.7-.7,5.4,2.4,3.7,5.1-3.6,5.5-9.6-3.5-3.7-5.1Z" fill="none" stroke="#fff" stroke-miterlimit="10" stroke-width="2"/>
    <path d="M88,163.6c5.9-1.5,6.9,7.6,1.3,6.8s-3.3-6.2-1.3-6.8Z" fill="none" stroke="#fff" stroke-miterlimit="10" stroke-width="2"/>
    <path d="M358.7,53.1c2.7-.7,5.4,2.4,3.7,5.1-3.6,5.5-9.6-3.5-3.7-5.1Z" fill="none" stroke="#fff" stroke-miterlimit="10" stroke-width="2"/>
    <path d="M320,33.1c2.7-.7,5.4,2.4,3.7,5.1-3.6,5.5-9.6-3.5-3.7-5.1Z" fill="none" stroke="#fff" stroke-miterlimit="10" stroke-width="2"/>
    <path d="M358,83.5c5.8-2,7.4,7.2.6,6.1s-2.9-5.3-.6-6.1Z" fill="none" stroke="#fff" stroke-miterlimit="10" stroke-width="2"/>
    <path d="M320,53.1c2.7-.7,5.4,2.4,3.7,5.1-3.6,5.5-9.6-3.5-3.7-5.1Z" fill="none" stroke="#fff" stroke-miterlimit="10" stroke-width="2"/>
    <path d="M191.6,93.2c2.7-.7,5.4,2.4,3.7,5.1-3.6,5.5-9.6-3.5-3.7-5.1Z" fill="none" stroke="#fff" stroke-miterlimit="10" stroke-width="2"/>
    <path d="M422.9,33.1c3.6-1.4,5.1,5,2.5,6.7-5.5,1.9-6.7-5.6-2.5-6.7Z" fill="none" stroke="#fff" stroke-miterlimit="10" stroke-width="2"/>
    <path d="M320,93.2c2.7-.7,5.4,2.4,3.7,5.1-3.6,5.5-9.6-3.5-3.7-5.1Z" fill="none" stroke="#fff" stroke-miterlimit="10" stroke-width="2"/>
    <path d="M177.8,243.7c3.8-1.1,6.6,2.3,4.4,5.8-4.3,2.5-9-4.4-4.4-5.8Z" fill="none" stroke="#fff" stroke-miterlimit="10" stroke-width="2"/>
    <path d="M143.3,293.5c2.3,2.1,1.5,5.9-2.2,6.1-6.8.3-2.1-10.1,2.2-6.1Z" fill="none" stroke="#fff" stroke-miterlimit="10" stroke-width="2"/>
    <path d="M153.5,214.1c5.3-.2,4.9,8.3-1.1,6.3s-2-6.2,1.1-6.3Z" fill="none" stroke="#fff" stroke-miterlimit="10" stroke-width="2"/>
    <path d="M178.5,203.6c5.5-1.6,6.3,7.2-.1,6.1-3.6-.6-2.9-5.2.1-6.1Z" fill="none" stroke="#fff" stroke-miterlimit="10" stroke-width="2"/>
    <path d="M349.7,64.9c2.3,3.9-5.4,8.5-6.7,2.1s5.2-4.7,6.7-2.1Z" fill="none" stroke="#fff" stroke-miterlimit="10" stroke-width="2"/>
    <path d="M332.4,63.5c2.7-.8,6,1.6,4.4,4.4-3.8,6.6-9.3-2.9-4.4-4.4Z" fill="none" stroke="#fff" stroke-miterlimit="10" stroke-width="2"/>
    <path d="M332.4,83.5c5.4-1.6,7.5,7.2.6,6.1-3.3-.5-3.3-5.3-.6-6.1Z" fill="none" stroke="#fff" stroke-miterlimit="10" stroke-width="2"/>
    <path d="M349.8,119.2c-.8,1.3-7.7,1.2-6.6-2.8,1.3-5.7,8.8-1.7,6.6,2.8Z" fill="none" stroke="#fff" stroke-miterlimit="10" stroke-width="2"/>
    <path d="M178.5,173.2c5.3-1.5,5.7,6.4,1.2,6.8-3.4.4-5-5.8-1.2-6.8Z" fill="none" stroke="#fff" stroke-miterlimit="10" stroke-width="2"/>
    <path d="M143.4,249.7c-.8.5-3.9,0-4.6-.7-4.6-9,10.4-6.3,4.6.7Z" fill="none" stroke="#fff" stroke-miterlimit="10" stroke-width="2"/>
    <path d="M181.3,169.5c-5.6,1.8-7.2-4.2-2.1-6.7,2.7-.7,4.9,5.1,2.1,6.7Z" fill="none" stroke="#fff" stroke-miterlimit="10" stroke-width="2"/>
    <path d="M117.8,123.5c3,8.3-7.5,9.2-5.1.6l5.1-.6Z" fill="none" stroke="#fff" stroke-miterlimit="10" stroke-width="2"/>
    <path d="M395.6,59.1c-2.6-2.6.7-8.4,4.4-5.4s-1.2,8.6-4.4,5.4Z" fill="none" stroke="#fff" stroke-miterlimit="10" stroke-width="2"/>
    <path d="M166.1,213.3c2.3-.6,4.8,1.7,4,4-2.8,7.6-10.5-2.2-4-4Z" fill="none" stroke="#fff" stroke-miterlimit="10" stroke-width="2"/>
    <path d="M349.8,74.5c.7,1.2,0,4.9-1.8,5.3-8.4.8-4.5-9.4,1.8-5.3Z" fill="none" stroke="#fff" stroke-miterlimit="10" stroke-width="2"/>
    <path d="M100,139.9c-1-2.3-1.6-6.4,1.7-6.9,5.6-.8,4.6,8.2-1.7,6.9Z" fill="none" stroke="#fff" stroke-miterlimit="10" stroke-width="2"/>
    <path d="M410.4,33.1c5.1.1,4.6,8.2-.8,6.8-2.9-.5-2.5-6.5.8-6.8Z" fill="none" stroke="#fff" stroke-miterlimit="10" stroke-width="2"/>
    <path d="M335.9,53.9c4.4,3.7-2,7.8-4.6,5s1.4-7.7,4.6-5Z" fill="none" stroke="#fff" stroke-miterlimit="10" stroke-width="2"/>
    <path d="M125.7,158.5c-2.5-4.5,5.5-8.4,6.1-2.2s-4.9,4.3-6.1,2.2Z" fill="none" stroke="#fff" stroke-miterlimit="10" stroke-width="2"/>
    <path d="M139.1,223.6c7.5-2.1,5.1,8.9.2,6.5s-2.1-5.9-.2-6.5Z" fill="none" stroke="#fff" stroke-miterlimit="10" stroke-width="2"/>
    <path d="M100.1,109.5c-3.3-3.4,1.8-8.2,4.7-5s-1.9,7.8-4.7,5Z" fill="none" stroke="#fff" stroke-miterlimit="10" stroke-width="2"/>
    <path d="M384.9,33.1c4.6-.6,5,8.4-.7,6.7s-2.8-6.2.7-6.7Z" fill="none" stroke="#fff" stroke-miterlimit="10" stroke-width="2"/>
    <path d="M124.9,334.8c2-1,4.1-1.1,5.8.6,2.1,8.2-7,6.5-5.8-.6Z" fill="none" stroke="#fff" stroke-miterlimit="10" stroke-width="2"/>
    <path d="M88.7,183.6c5-1.7,6.5,7.2.7,6.6s-2.9-5.9-.7-6.6Z" fill="none" stroke="#fff" stroke-miterlimit="10" stroke-width="2"/>
    <path d="M336.6,34.6c3.1,3.7-3.6,7.8-5.7,3.2s2.8-6.6,5.7-3.2Z" fill="none" stroke="#fff" stroke-miterlimit="10" stroke-width="2"/>
    <path d="M114.9,132.5c3.5-.9,6.5,8.8-.7,6.7s-2-6,.7-6.7Z" fill="none" stroke="#fff" stroke-miterlimit="10" stroke-width="2"/>
    <path d="M178.5,183.6c5.8-1.7,5.8,7.7,0,6s-3.2-5,0-6Z" fill="none" stroke="#fff" stroke-miterlimit="10" stroke-width="2"/>
    <path d="M375.3,34.5c1.8,3.1-2.1,7.4-5,4.7s2.7-8.7,5-4.7Z" fill="none" stroke="#fff" stroke-miterlimit="10" stroke-width="2"/>
    <path d="M294.5,33.1c5.6-1.3,4.7,8.8-.5,6.5s-2.4-5.8.5-6.5Z" fill="none" stroke="#fff" stroke-miterlimit="10" stroke-width="2"/>
    <path d="M422.9,43.5c5-1,4.3,4.9,3,5.8-4.1,2.9-8.8-4.6-3-5.8Z" fill="none" stroke="#fff" stroke-miterlimit="10" stroke-width="2"/>
    <path d="M152.2,243.7c6.3-2.2,6.2,6.9.6,6.1s-2.9-5.3-.6-6.1Z" fill="none" stroke="#fff" stroke-miterlimit="10" stroke-width="2"/>
    <path d="M397.3,33.1c4.1-1,5.4,6.2,1.2,6.8s-4.3-6.1-1.2-6.8Z" fill="none" stroke="#fff" stroke-miterlimit="10" stroke-width="2"/>
    <path d="M413.3,49.5c-5.4,1-5.3-.6-5.3-5.3,4.7-3.7,8,3.7,5.3,5.3Z" fill="none" stroke="#fff" stroke-miterlimit="10" stroke-width="2"/>
    <path d="M305.2,74.6c2.2-3.8,10,1.7,4.7,5s-6.4-2.1-4.7-5Z" fill="none" stroke="#fff" stroke-miterlimit="10" stroke-width="2"/>
    <path d="M292.8,79.1c-3-3,1.7-8,5-4.6s-2.1,7.6-5,4.6Z" fill="none" stroke="#fff" stroke-miterlimit="10" stroke-width="2"/>
    <path d="M362.2,44.2c4.1,4.1-5.7,8.8-6,2.2s4.2-4,6-2.2Z" fill="none" stroke="#fff" stroke-miterlimit="10" stroke-width="2"/>
    <path d="M306.9,63.5c5.3-1.6,5.6,5.7,1.8,6.7s-5.6-5.6-1.8-6.7Z" fill="none" stroke="#fff" stroke-miterlimit="10" stroke-width="2"/>
    <path d="M297.3,69.4c-3.1,1.8-7.4-2.1-4.7-5s8.7,2.7,4.7,5Z" fill="none" stroke="#fff" stroke-miterlimit="10" stroke-width="2"/>
    <path d="M344.5,49.4c-4-2.3,1.3-8.8,4.7-5s-1.6,6.8-4.7,5Z" fill="none" stroke="#fff" stroke-miterlimit="10" stroke-width="2"/>
    <path d="M101.8,162.9c3.4.3,5.3,4.4,2.6,6.7-5.6,1.2-6.8-3.7-2.6-6.7Z" fill="none" stroke="#fff" stroke-miterlimit="10" stroke-width="2"/>
    <path d="M320,43.4c4.6-1.2,6.7,7.2-.1,6.1s-2.7-5.3.1-6.1Z" fill="none" stroke="#fff" stroke-miterlimit="10" stroke-width="2"/>
    <path d="M130.2,214c2.3,5.1.2,7.3-5.3,5.3-.2-5.1-.3-5.9,5.3-5.3Z" fill="none" stroke="#fff" stroke-miterlimit="10" stroke-width="2"/>
    <path d="M112.5,164.2c8-3.4,7.9,10,.3,4.8l-.3-4.8Z" fill="none" stroke="#fff" stroke-miterlimit="10" stroke-width="2"/>
    <path d="M345.6,33.8c5.8-1.7,5.8,7.7,0,6s-3.2-5,0-6Z" fill="none" stroke="#fff" stroke-miterlimit="10" stroke-width="2"/>
    <path d="M92.3,200c-8.1,2.3-5.4-9.1-.9-6.2s2,3.9.9,6.2Z" fill="none" stroke="#fff" stroke-miterlimit="10" stroke-width="2"/>
    <path d="M297.3,49.4c-4.7,2.8-8.3-5.7-2.2-6.1s4.6,4.7,2.2,6.1Z" fill="none" stroke="#fff" stroke-miterlimit="10" stroke-width="2"/>
    <path d="M333.2,43.5c4.6-.8,5.8,5.4,1.2,6.1s-5.4-5.3-1.2-6.1Z" fill="none" stroke="#fff" stroke-miterlimit="10" stroke-width="2"/>
    <path d="M375.3,44.1c1,5.5-.6,5.3-5.3,5.3-2.2-4.3,1.3-7.9,5.3-5.3Z" fill="none" stroke="#fff" stroke-miterlimit="10" stroke-width="2"/>
    <path d="M382.5,44.1c1.4-2.2,8.9.2,5.5,4.5s-7.8-.8-5.5-4.5Z" fill="none" stroke="#fff" stroke-miterlimit="10" stroke-width="2"/>
    <path d="M218.5,93.2c3-.3,4.9,6.9-.1,6.9s-3.8-6.5.1-6.9Z" fill="none" stroke="#fff" stroke-miterlimit="10" stroke-width="2"/>
    <path d="M137.9,149.7l.3-5.6c7.4-3.2,8,7.6-.3,5.6Z" fill="none" stroke="#fff" stroke-miterlimit="10" stroke-width="2"/>
    <path d="M295.2,53.1c2.3-.3,4.8,3.6,2.2,5.7-4.5,3.9-8.3-4.8-2.2-5.7Z" fill="none" stroke="#fff" stroke-miterlimit="10" stroke-width="2"/>
    <path d="M163.6,244.3c2.3-1.4,7.4-1.2,6.7,2.2-1.1,5.5-8.1,3.3-6.7-2.2Z" fill="none" stroke="#fff" stroke-miterlimit="10" stroke-width="2"/>
    <path d="M130.2,293.4c2,1.3,1.6,6.3-2.2,6.1-6.2-.3-2.2-8.8,2.2-6.1Z" fill="none" stroke="#fff" stroke-miterlimit="10" stroke-width="2"/>
    <path d="M140.5,323.1c5.2-.8,4.5,6.5-.2,6.8-3.6-1.1-2.9-5.4.2-6.8Z" fill="none" stroke="#fff" stroke-miterlimit="10" stroke-width="2"/>
    <path d="M305.2,38.4c-2.2-4,3.8-7.6,5.7-3.3s-4.1,6.2-5.7,3.3Z" fill="none" stroke="#fff" stroke-miterlimit="10" stroke-width="2"/>
    <path d="M190.9,234c5.6-1.6,6.9,5.3,1.8,6s-5.3-5-1.8-6Z" fill="none" stroke="#fff" stroke-miterlimit="10" stroke-width="2"/>
    <path d="M127.3,233.3c4.4-.8,5.3,8.4-.7,6.7s-1.9-6.2.7-6.7Z" fill="none" stroke="#fff" stroke-miterlimit="10" stroke-width="2"/>
    <path d="M153.6,284.4c1.4-.5,3.6,1.8,3.6,3l-3.8,3.8c-4.3-1.8-4.1-5,.2-6.8Z" fill="none" stroke="#fff" stroke-miterlimit="10" stroke-width="2"/>
    <path d="M166,93.1c3.1-.8,6,5.3,1.8,6.8-3.9,1.3-6.3-5.6-1.8-6.8Z" fill="none" stroke="#fff" stroke-miterlimit="10" stroke-width="2"/>
    <path d="M400.9,44.1c1.9,3.1-1.6,7.8-5.1,4.7-3.9-3.5,3.2-7.8,5.1-4.7Z" fill="none" stroke="#fff" stroke-miterlimit="10" stroke-width="2"/>
    <path d="M88.7,173.9c5.5-1.6,6.1,6.9.6,6.1s-3.4-5.3-.6-6.1Z" fill="none" stroke="#fff" stroke-miterlimit="10" stroke-width="2"/>
    <path d="M127.9,243.2c5-.2,4.7,8.1-.5,6.5s-2.8-6.4.5-6.5Z" fill="none" stroke="#fff" stroke-miterlimit="10" stroke-width="2"/>
    <path d="M305.1,88.8c-3.1-4.9,6.8-8.4,6.1-1.7-.3,3.1-5.4,2.8-6.1,1.7Z" fill="none" stroke="#fff" stroke-miterlimit="10" stroke-width="2"/>
    <path d="M155.8,293.4c3.2,6.5-4.1,10-5.4,3.2,1.7-2.2,2.1-4.1,5.4-3.2Z" fill="none" stroke="#fff" stroke-miterlimit="10" stroke-width="2"/>
    <path d="M242.7,63.5c4.8-1.3,6.1,5.6,1.6,6.5-3.3.7-5.2-5.5-1.6-6.5Z" fill="none" stroke="#fff" stroke-miterlimit="10" stroke-width="2"/>
    <path d="M190.9,73.8c5.4-1.9,6.9,5.3,1.8,6s-5-4.9-1.8-6Z" fill="none" stroke="#fff" stroke-miterlimit="10" stroke-width="2"/>
    <path d="M177.5,219.2c-2.8-2.3-1.6-5.6,2.2-5.4,6.1.3,1.9,8.8-2.2,5.4Z" fill="none" stroke="#fff" stroke-miterlimit="10" stroke-width="2"/>
    <path d="M281.3,63.5c4.2-1.2,5.6,5.8,1.8,6.7s-5.1-5.8-1.8-6.7Z" fill="none" stroke="#fff" stroke-miterlimit="10" stroke-width="2"/>
    <path d="M267.2,79.1c-1.9-1.9-.5-5.6,2.2-5.8,6.3-.3,2.1,10.1-2.2,5.8Z" fill="none" stroke="#fff" stroke-miterlimit="10" stroke-width="2"/>
    <path d="M131,149.6l-5.3-.7c-1.4-8.1,8.4-7,5.3.7Z" fill="none" stroke="#fff" stroke-miterlimit="10" stroke-width="2"/>
    <path d="M178.5,103.5c5.3-1.4,6.2,6.9.6,6.1s-3.3-5.4-.6-6.1Z" fill="none" stroke="#fff" stroke-miterlimit="10" stroke-width="2"/>
    <path d="M165,109.5c-3.1-1.8-1-7.9,3.3-5.7s0,7.6-3.3,5.7Z" fill="none" stroke="#fff" stroke-miterlimit="10" stroke-width="2"/>
    <path d="M310.4,53.9c2.1,2.1,0,6.4-2.8,5.9-5.9-1.1-.8-9.5,2.8-5.9Z" fill="none" stroke="#fff" stroke-miterlimit="10" stroke-width="2"/>
    <path d="M117.7,174c2.3,2.7-1,8.7-4.5,5.2s2-8.1,4.5-5.2Z" fill="none" stroke="#fff" stroke-miterlimit="10" stroke-width="2"/>
    <path d="M130.2,184.4c1.8,1.8.2,5.5-2.2,5.8-5.8-1.3-2.9-9.6,2.2-5.8Z" fill="none" stroke="#fff" stroke-miterlimit="10" stroke-width="2"/>
    <path d="M268.9,63.5c4.3-.8,4.8,5.1,1.8,6-4.7,1.4-6.3-5.1-1.8-6Z" fill="none" stroke="#fff" stroke-miterlimit="10" stroke-width="2"/>
    <path d="M279.6,79.1v-4.6c8.1-3.9,7.8,8.5,0,4.6Z" fill="none" stroke="#fff" stroke-miterlimit="10" stroke-width="2"/>
    <path d="M216.1,69.4c-2.3-2.4-.2-7.2,3.3-5.7,5.2,2.3-.4,8.7-3.3,5.7Z" fill="none" stroke="#fff" stroke-miterlimit="10" stroke-width="2"/>
    <path d="M208.2,289c-3.2,3.2-8.4-1.9-4.4-4.7s6.7,2.4,4.4,4.7Z" fill="none" stroke="#fff" stroke-miterlimit="10" stroke-width="2"/>
    <path d="M178.5,83.5c5.2-1.5,6.1,6.9.6,6.1s-3.4-5.3-.6-6.1Z" fill="none" stroke="#fff" stroke-miterlimit="10" stroke-width="2"/>
    <path d="M143.3,284.5c1.3,1.5.8,6.3-2.9,5.8-6-.7-.8-9.9,2.9-5.8Z" fill="none" stroke="#fff" stroke-miterlimit="10" stroke-width="2"/>
    <path d="M195.1,88.7c-3.2,3.2-9-2.7-4-5,3.2-1.5,6.2,2.7,4,5Z" fill="none" stroke="#fff" stroke-miterlimit="10" stroke-width="2"/>
    <path d="M208.2,98.4c-1.7,3-7.5.6-5.7-3.3s7.5.2,5.7,3.3Z" fill="none" stroke="#fff" stroke-miterlimit="10" stroke-width="2"/>
    <path d="M130.2,329c-2.3,1.9-7.6-.7-4.7-4.4,2.8-3.5,8.7,1,4.7,4.4Z" fill="none" stroke="#fff" stroke-miterlimit="10" stroke-width="2"/>
    <path d="M190.9,113.9c5.6-2,7.3,5.8,1.3,5.5s-3.7-4.6-1.3-5.5Z" fill="none" stroke="#fff" stroke-miterlimit="10" stroke-width="2"/>
    <path d="M182.7,64.9c2.7,4.7-7,7.2-6.1.9s5.1-2.6,6.1-.9Z" fill="none" stroke="#fff" stroke-miterlimit="10" stroke-width="2"/>
    <path d="M195.1,289c-3.4,3.3-8.5-1.7-4.4-4.7s6.5,2.7,4.4,4.7Z" fill="none" stroke="#fff" stroke-miterlimit="10" stroke-width="2"/>
    <path d="M181.3,293.4c6.1,6.4-7.8,9.6-3.9,0,.3-.3,3.3-.3,3.9,0Z" fill="none" stroke="#fff" stroke-miterlimit="10" stroke-width="2"/>
    <path d="M204,63.5c4.3-1.4,5.9,4.3,3,5.8-4.8,2.4-6.2-4.7-3-5.8Z" fill="none" stroke="#fff" stroke-miterlimit="10" stroke-width="2"/>
    <path d="M204,83.5c4.3-1.4,5.9,4.3,3,5.8-4.8,2.4-6.2-4.7-3-5.8Z" fill="none" stroke="#fff" stroke-miterlimit="10" stroke-width="2"/>
    <path d="M246.2,79.1c-1.8,1.8-5.2.6-5.3-2.3-.3-6.9,9.5-1.9,5.3,2.3Z" fill="none" stroke="#fff" stroke-miterlimit="10" stroke-width="2"/>
    <path d="M166,173.2c6.2-1.8,3.3,10.1-1.2,5.8s-1.1-5.1,1.2-5.8Z" fill="none" stroke="#fff" stroke-miterlimit="10" stroke-width="2"/>
    <path d="M220.6,79.1c-3.2,3.2-7.7-2.1-4.4-4.7s7.2,2,4.4,4.7Z" fill="none" stroke="#fff" stroke-miterlimit="10" stroke-width="2"/>
    <path d="M104.6,144.3c3.7,3.8-5.4,9.1-5.4,2.3s3.8-3.9,5.4-2.3Z" fill="none" stroke="#fff" stroke-miterlimit="10" stroke-width="2"/>
    <path d="M190.5,223.7c3.1-1.8,8.1,3.5,3.3,5.7s-6.3-4-3.3-5.7Z" fill="none" stroke="#fff" stroke-miterlimit="10" stroke-width="2"/>
    <path d="M271.7,53.9c2.3,2,.4,7.3-3.2,5.7-5.1-2.2.2-8.5,3.2-5.7Z" fill="none" stroke="#fff" stroke-miterlimit="10" stroke-width="2"/>
    <path d="M216.1,53.8c3.6-2.2,8.3,3.5,3.3,5.8s-4.9-4.8-3.3-5.8Z" fill="none" stroke="#fff" stroke-miterlimit="10" stroke-width="2"/>
    <path d="M190.5,109.5c-3-1.7-.6-7.5,3.3-5.7s-.2,7.5-3.3,5.7Z" fill="none" stroke="#fff" stroke-miterlimit="10" stroke-width="2"/>
    <path d="M190.6,194.1c3.2-2.4,7.5,3.5,3.2,5.7s-6.4-3.3-3.2-5.7Z" fill="none" stroke="#fff" stroke-miterlimit="10" stroke-width="2"/>
    <path d="M284.9,59.1c-7.5,3.7-7.4-9.1-.2-4.8l.2,4.8Z" fill="none" stroke="#fff" stroke-miterlimit="10" stroke-width="2"/>
    <path d="M246.2,53.9c4.4,3.8-5.6,9.4-5.3,2.3s3.5-3.9,5.3-2.3Z" fill="none" stroke="#fff" stroke-miterlimit="10" stroke-width="2"/>
    <path d="M246.2,44.2c2.8,2.8-1.1,7.4-4.4,4.7s1.6-7.6,4.4-4.7Z" fill="none" stroke="#fff" stroke-miterlimit="10" stroke-width="2"/>
    <path d="M208.3,74.5c3.1,5-7,7.9-6,1.8s5.2-3.1,6-1.8Z" fill="none" stroke="#fff" stroke-miterlimit="10" stroke-width="2"/>
    <path d="M267.2,44.2c2.8-2.9,7.9,1.9,4.4,4.7s-7.2-1.9-4.4-4.7Z" fill="none" stroke="#fff" stroke-miterlimit="10" stroke-width="2"/>
    <path d="M259.4,79.2h-5.4c-.7-7.9,6.8-8.2,5.4,0Z" fill="none" stroke="#fff" stroke-miterlimit="10" stroke-width="2"/>
    <path d="M166.1,234c2.4-.6,5.3,2,3.7,4.4-3.5,5.2-9.5-2.8-3.7-4.4Z" fill="none" stroke="#fff" stroke-miterlimit="10" stroke-width="2"/>
    <path d="M217.1,83.5c3.8-1.2,6.6,5.5,1.7,6.5s-4.8-5.5-1.7-6.5Z" fill="none" stroke="#fff" stroke-miterlimit="10" stroke-width="2"/>
    <path d="M191.6,63.5c2.4-.6,5.3,2,3.7,4.4-3.5,5.2-9.5-2.8-3.7-4.4Z" fill="none" stroke="#fff" stroke-miterlimit="10" stroke-width="2"/>
    <path d="M178.5,113.9c5.4-1.6,5.9,5.9.4,6s-4.2-4.8-.4-6Z" fill="none" stroke="#fff" stroke-miterlimit="10" stroke-width="2"/>
    <path d="M101.1,153.3c2.6-.5,5.7,2.7,3.3,5.3-4.3,4.8-7.5-4.6-3.3-5.3Z" fill="none" stroke="#fff" stroke-miterlimit="10" stroke-width="2"/>
    <path d="M178.5,283.7c3.3-.9,6.1,4.2,3,5.8-4.8,2.4-6.6-4.8-3-5.8Z" fill="none" stroke="#fff" stroke-miterlimit="10" stroke-width="2"/>
    <path d="M269.5,33.2c4.8,0,3.5,9.2-1.4,6s-1.3-6,1.4-6Z" fill="none" stroke="#fff" stroke-miterlimit="10" stroke-width="2"/>
    <path d="M195.1,274.8c2,1.9-.6,5.8-3.3,5.1-5.9-1.6-.7-8.9,3.3-5.1Z" fill="none" stroke="#fff" stroke-miterlimit="10" stroke-width="2"/>
    <path d="M246.2,39c-2.5,2.5-7.2-1-4.7-4.4s7.7,1.3,4.7,4.4Z" fill="none" stroke="#fff" stroke-miterlimit="10" stroke-width="2"/>
    <path d="M105.5,179.4h-5.4c-2.2-4.2.6-6.6,4.8-5.2l.6,5.2Z" fill="none" stroke="#fff" stroke-miterlimit="10" stroke-width="2"/>
    <path d="M256.5,33.2c4-.3,4.1,6.5.5,6.8s-4.4-6.4-.5-6.8Z" fill="none" stroke="#fff" stroke-miterlimit="10" stroke-width="2"/>
    <path d="M179.2,93.1c2.2-.6,4.6,2.6,3,5.1-3.3,5.3-8.7-3.7-3-5.1Z" fill="none" stroke="#fff" stroke-miterlimit="10" stroke-width="2"/>
    <path d="M194.4,53.9c3.3,1.9.1,7.7-3.6,5.3s0-7.3,3.6-5.3Z" fill="none" stroke="#fff" stroke-miterlimit="10" stroke-width="2"/>
    <path d="M203,104.3c2.4-2.4,7.5.9,4.7,4.4-2.8,3.5-7.6-1.5-4.7-4.4Z" fill="none" stroke="#fff" stroke-miterlimit="10" stroke-width="2"/>
    <path d="M143.3,183.6c2.5,1.4,1.2,6.5-2.1,6-6.5-1-1.3-8,2.1-6Z" fill="none" stroke="#fff" stroke-miterlimit="10" stroke-width="2"/>
    <path d="M140.5,83.5c4.9-.9,4.7,7.5-.5,5.8-3.2-1-2.8-5.2.5-5.8Z" fill="none" stroke="#fff" stroke-miterlimit="10" stroke-width="2"/>
    <path d="M151.2,88.8c-2.3-3.6,3.7-8,5.8-3.3,1.8,4.1-4.7,5.1-5.8,3.3Z" fill="none" stroke="#fff" stroke-miterlimit="10" stroke-width="2"/>
    <path d="M166,83.5c4.8-1.3,5.4,7.8-.5,5.8s-2-5.1.5-5.8Z" fill="none" stroke="#fff" stroke-miterlimit="10" stroke-width="2"/>
    <path d="M195.1,34.5c2.5,2.4-1.3,6.7-4,5-4.7-2.9.8-8.1,4-5Z" fill="none" stroke="#fff" stroke-miterlimit="10" stroke-width="2"/>
    <path d="M279.6,34.5c6-2.6,5.2.7,4.8,5.1-3.9,1.4-5.6-1.4-4.8-5.1Z" fill="none" stroke="#fff" stroke-miterlimit="10" stroke-width="2"/>
    <path d="M140.5,93.1c2.2-.6,4.7,3.1,2.7,5.5-3.7,4.4-7.8-4.1-2.7-5.5Z" fill="none" stroke="#fff" stroke-miterlimit="10" stroke-width="2"/>
    <path d="M138.1,64.9c1.1-1.9,6-2.4,6,1.6,0,5.7-8.5,2.8-6-1.6Z" fill="none" stroke="#fff" stroke-miterlimit="10" stroke-width="2"/>
    <path d="M125.9,173.9c5.1-1.7,6.7,4.5,2.3,5.8s-4.6-5.1-2.3-5.8Z" fill="none" stroke="#fff" stroke-miterlimit="10" stroke-width="2"/>
    <path d="M155.7,93.9c2.1,1.2,1.6,6.4-1.6,6.1-6-.5-2.6-8.5,1.6-6.1Z" fill="none" stroke="#fff" stroke-miterlimit="10" stroke-width="2"/>
    <path d="M310.4,44.2c2.9,2.9-2,7.8-4.7,4.4s2.3-6.8,4.7-4.4Z" fill="none" stroke="#fff" stroke-miterlimit="10" stroke-width="2"/>
    <path d="M191.6,43.4c2-.5,5.4,1.9,3.7,4.4-3.5,5.3-9.4-3-3.7-4.4Z" fill="none" stroke="#fff" stroke-miterlimit="10" stroke-width="2"/>
    <path d="M178.5,274.1c5-1.5,5.7,4.9,1.8,6-3.7,1-5-5-1.8-6Z" fill="none" stroke="#fff" stroke-miterlimit="10" stroke-width="2"/>
    <path d="M203,44.2c2.4-2.4,7.5.9,4.7,4.4s-7.6-1.5-4.7-4.4Z" fill="none" stroke="#fff" stroke-miterlimit="10" stroke-width="2"/>
    <polygon points="259.4 44.1 259.2 48.9 254.6 49.3 254 44.1 259.4 44.1" fill="none" stroke="#fff" stroke-miterlimit="10" stroke-width="2"/>
    <path d="M179.2,43.4c3.4-.5,4.9,5,1.8,6-4.7,1.6-6.3-5.4-1.8-6Z" fill="none" stroke="#fff" stroke-miterlimit="10" stroke-width="2"/>
    <path d="M191.6,203.6c2-.5,5.4,1.9,3.7,4.4-3.6,5.4-9.1-3-3.7-4.4Z" fill="none" stroke="#fff" stroke-miterlimit="10" stroke-width="2"/>
    <path d="M152.2,104.2c5.5-1.9,6.9,5.8,1.3,5.5s-3.7-4.6-1.3-5.5Z" fill="none" stroke="#fff" stroke-miterlimit="10" stroke-width="2"/>
    <path d="M163.6,68.1c-1.6-2.7,3.9-7,5.7-3.3s-4.2,6.1-5.7,3.3Z" fill="none" stroke="#fff" stroke-miterlimit="10" stroke-width="2"/>
    <path d="M151.2,174.7c3.8-3.7,8.8,4,2.6,5.1s-4.3-3.4-2.6-5.1Z" fill="none" stroke="#fff" stroke-miterlimit="10" stroke-width="2"/>
    <path d="M217.1,33.8c2.7-.7,5.6,1.5,3.7,4.4-3.6,5.5-8.3-3.2-3.7-4.4Z" fill="none" stroke="#fff" stroke-miterlimit="10" stroke-width="2"/>
    <path d="M166.1,33.8c2.8-.5,4.2,1.4,3.3,4.1-2,6.1-10-2.8-3.3-4.1Z" fill="none" stroke="#fff" stroke-miterlimit="10" stroke-width="2"/>
    <path d="M168.9,293.4l.5,4.7-1.6,1.3c-6.4,0-5.1-7.7,1.1-6Z" fill="none" stroke="#fff" stroke-miterlimit="10" stroke-width="2"/>
    <path d="M255.8,63.5c4.1-1.1,5.9,6.5.5,6.2s-2.9-5.5-.5-6.2Z" fill="none" stroke="#fff" stroke-miterlimit="10" stroke-width="2"/>
    <path d="M117.9,189.6l-4.6-.8c-3.1-7.4,7.8-7.3,4.6.8Z" fill="none" stroke="#fff" stroke-miterlimit="10" stroke-width="2"/>
    <path d="M233.7,34.5c2.4,4.1-4.5,7.9-5.4,2.9s4-5.2,5.4-2.9Z" fill="none" stroke="#fff" stroke-miterlimit="10" stroke-width="2"/>
    <path d="M202.9,119.2c-3.7-6.1,8.3-8.3,5.1-.5l-5.1.5Z" fill="none" stroke="#fff" stroke-miterlimit="10" stroke-width="2"/>
    <path d="M205.4,33.1c2.1-.2,3.9,3.1,2,5.5-4,4.8-7.8-5-2-5.5Z" fill="none" stroke="#fff" stroke-miterlimit="10" stroke-width="2"/>
    <path d="M191.6,183.6c2.5-.7,4.9,2,3.6,4.3-3.2,5.5-9.4-2.7-3.6-4.3Z" fill="none" stroke="#fff" stroke-miterlimit="10" stroke-width="2"/>
    <path d="M228.5,79.1l.5-5.1c7.7-3.2,5.5,8.8-.5,5.1Z" fill="none" stroke="#fff" stroke-miterlimit="10" stroke-width="2"/>
    <path d="M177.5,79.1c-2.1-2.1-.6-5.9,2.9-5.4,5.4.8.6,8.9-2.9,5.4Z" fill="none" stroke="#fff" stroke-miterlimit="10" stroke-width="2"/>
    <path d="M151.2,74.5c.8-1.3,6.3-1.5,6,2.2-.6,5.9-8.7,2.2-6-2.2Z" fill="none" stroke="#fff" stroke-miterlimit="10" stroke-width="2"/>
    <path d="M140.4,202.9c3.7,1,4.5,6.5.6,7.6-3.5-1.8-4-5.3-.6-7.6Z" fill="none" stroke="#fff" stroke-miterlimit="10" stroke-width="2"/>
    <path d="M256.5,53.2c3.9-.3,4.3,6.3.5,6.6s-4.3-6.3-.5-6.6Z" fill="none" stroke="#fff" stroke-miterlimit="10" stroke-width="2"/>
    <path d="M208.2,58.4c-1.7,2.8-7.6.4-5.7-3.3s7.8-.2,5.7,3.3Z" fill="none" stroke="#fff" stroke-miterlimit="10" stroke-width="2"/>
    <path d="M155.7,53.9c2.8,1.7.4,7.6-3.3,5.7s-.2-7.8,3.3-5.7Z" fill="none" stroke="#fff" stroke-miterlimit="10" stroke-width="2"/>
    <path d="M284.9,44.1c2.9,6.9-7.5,8.1-5.1.6l5.1-.6Z" fill="none" stroke="#fff" stroke-miterlimit="10" stroke-width="2"/>
    <path d="M220.7,44.1c2.1,4.1-.4,6.2-4.6,5.3-2.1-4.9.2-5.8,4.6-5.3Z" fill="none" stroke="#fff" stroke-miterlimit="10" stroke-width="2"/>
    <path d="M152.9,33.8c3.8-1.1,6.2,4.8,1.8,6s-5-5.1-1.8-6Z" fill="none" stroke="#fff" stroke-miterlimit="10" stroke-width="2"/>
    <path d="M178.5,33.8c2.7-.8,5.3,1.2,4,4-2.6,5.8-9.1-2.5-4-4Z" fill="none" stroke="#fff" stroke-miterlimit="10" stroke-width="2"/>
    <path d="M233.8,48.8l-4.8.5-.5-5.1c3.9-1.9,6.4.5,5.3,4.6Z" fill="none" stroke="#fff" stroke-miterlimit="10" stroke-width="2"/>
    <path d="M166.1,223.6c5.2-1.4,4.7,8.1-.5,5.8s-2.3-5,.5-5.8Z" fill="none" stroke="#fff" stroke-miterlimit="10" stroke-width="2"/>
    <path d="M100.1,198.6l.5-5.1c7.2-2.7,5.7,9.1-.5,5.1Z" fill="none" stroke="#fff" stroke-miterlimit="10" stroke-width="2"/>
    <path d="M168.8,284.5c1.9,1.9.5,5.8-2.9,5.4-5.4-.8-.6-8.9,2.9-5.4Z" fill="none" stroke="#fff" stroke-miterlimit="10" stroke-width="2"/>
    <path d="M114.9,93.2c4.8-.9,3.6,9.7-1.4,6s-.7-5.6,1.4-6Z" fill="none" stroke="#fff" stroke-miterlimit="10" stroke-width="2"/>
    <path d="M230.3,63.5c4.7-1.3,5.2,7-.1,6.2s-2.2-5.5.1-6.2Z" fill="none" stroke="#fff" stroke-miterlimit="10" stroke-width="2"/>
    <path d="M125.6,88.8v-4.6c7.4-3.5,7.4,8.1,0,4.6Z" fill="none" stroke="#fff" stroke-miterlimit="10" stroke-width="2"/>
    <path d="M229.5,53.8c6-2,5.7,6.3,1.4,6s-3.4-5.3-1.4-6Z" fill="none" stroke="#fff" stroke-miterlimit="10" stroke-width="2"/>
    <path d="M139.4,340.1c-2.2-1.3-1.8-6.4,1.5-6.7,5.4,1.9,1.8,8.6-1.5,6.7Z" fill="none" stroke="#fff" stroke-miterlimit="10" stroke-width="2"/>
    <path d="M143.4,254c1.1.7,2.2,6.3-3,5.4-5.2-.9-.9-7.8,3-5.4Z" fill="none" stroke="#fff" stroke-miterlimit="10" stroke-width="2"/>
    <path d="M139.1,234c4.3-1.4,6,4.3,3,5.8s-5.6-4.9-3-5.8Z" fill="none" stroke="#fff" stroke-miterlimit="10" stroke-width="2"/>
    <path d="M139.8,33.8c3.1-.9,5.4,1.9,3.7,4.4-3.2,4.9-8.3-3-3.7-4.4Z" fill="none" stroke="#fff" stroke-miterlimit="10" stroke-width="2"/>
    <path d="M152.9,204.3c3.2-1.3,6.2,3,3,5.1-3.8,2-7.7-3.4-3-5.1Z" fill="none" stroke="#fff" stroke-miterlimit="10" stroke-width="2"/>
    <path d="M143.3,44.2c1.5,1.5.8,5.9-2.8,5.2-6.1-1.2-.7-8.7,2.8-5.2Z" fill="none" stroke="#fff" stroke-miterlimit="10" stroke-width="2"/>
    <path d="M168.8,44.2c3.5,3.5-2.8,8.1-5,3.3s2.9-5.4,5-3.3Z" fill="none" stroke="#fff" stroke-miterlimit="10" stroke-width="2"/>
    <path d="M138,349.1c-2.8-4.5,5.8-8.2,5.5-1.6s-4.9,2.5-5.5,1.6Z" fill="none" stroke="#fff" stroke-miterlimit="10" stroke-width="2"/>
    <path d="M166,183.6c4.9-1.4,4.5,8.1-.5,5.8s-2.3-5,.5-5.8Z" fill="none" stroke="#fff" stroke-miterlimit="10" stroke-width="2"/>
    <path d="M153.6,223.6c3.6.2,4.3,6.1.6,6.8-3.9-1.4-4.2-4.8-.6-6.8Z" fill="none" stroke="#fff" stroke-miterlimit="10" stroke-width="2"/>
    <path d="M130.9,344.5c.5.8.2,3.6-.5,4.4-5.2,4.5-8.7-8.4.5-4.4Z" fill="none" stroke="#fff" stroke-miterlimit="10" stroke-width="2"/>
    <path d="M138.8,174.7c1.6-1.6,5.2-1.6,5.4,1.6.4,6.6-9.1,2-5.4-1.6Z" fill="none" stroke="#fff" stroke-miterlimit="10" stroke-width="2"/>
    <path d="M113.5,144.2l4.8.5c1.9,7.7-9.4,5-4.8-.5Z" fill="none" stroke="#fff" stroke-miterlimit="10" stroke-width="2"/>
    <path d="M168.9,79.1c-4,2.6-8.3-4.7-3-5.4s4.5,4.5,3,5.4Z" fill="none" stroke="#fff" stroke-miterlimit="10" stroke-width="2"/>
    <path d="M92.3,94.5c2.6,4-4.7,8.3-5.4,3s4.5-4.5,5.4-3Z" fill="none" stroke="#fff" stroke-miterlimit="10" stroke-width="2"/>
    <path d="M151.2,48.8c-1.9-3,1.9-6.8,5.1-4.1s-3.3,6.8-5.1,4.1Z" fill="none" stroke="#fff" stroke-miterlimit="10" stroke-width="2"/>
    <path d="M138.1,58.4c-1.6-2.8,2.2-6.5,5-4,3.3,2.9-2.9,7.6-5,4Z" fill="none" stroke="#fff" stroke-miterlimit="10" stroke-width="2"/>
    <path d="M100.1,88.8v-4.6c7.4-3.4,7.4,7.8,0,4.6Z" fill="none" stroke="#fff" stroke-miterlimit="10" stroke-width="2"/>
    <path d="M168.9,53.8c1.5,1,1.2,6-3,5.4s-1.1-8,3-5.4Z" fill="none" stroke="#fff" stroke-miterlimit="10" stroke-width="2"/>
    <path d="M102.5,93.2c2.1-.2,3.9,3.1,2,5.5-4,4.8-7-5.1-2-5.5Z" fill="none" stroke="#fff" stroke-miterlimit="10" stroke-width="2"/>
    <path d="M117.8,88.8c-3.3,1.8-6.7-.2-5.1-4,4.9-3.7,4.8.2,5.1,4Z" fill="none" stroke="#fff" stroke-miterlimit="10" stroke-width="2"/>
    <path d="M155.8,309.7c-4.2,2.6-8.6-5.1-2.2-5.4s3.6,4.6,2.2,5.4Z" fill="none" stroke="#fff" stroke-miterlimit="10" stroke-width="2"/>
    <path d="M152.9,183.6c2-.4,4.9,2.7,3.1,5.1-4.1,5.5-7.2-4.4-3.1-5.1Z" fill="none" stroke="#fff" stroke-miterlimit="10" stroke-width="2"/>
    <path d="M168.8,429.1c-3.3,3.3-8.1-3.7-2.8-5.2,3.2-.9,4.6,3.4,2.8,5.2Z" fill="none" stroke="#fff" stroke-miterlimit="10" stroke-width="2"/>
    <path d="M130.2,53.8c1.3.8,1.7,6-2.3,5.8s-2.4-8.8,2.3-5.8Z" fill="none" stroke="#fff" stroke-miterlimit="10" stroke-width="2"/>
    <path d="M178.5,53.8c5.3-1.6,6,6.2.6,5.4s-3.3-4.6-.6-5.4Z" fill="none" stroke="#fff" stroke-miterlimit="10" stroke-width="2"/>
    <path d="M165.4,274.1c5.3-1.6,6,6.2.6,5.4s-3.3-4.6-.6-5.4Z" fill="none" stroke="#fff" stroke-miterlimit="10" stroke-width="2"/>
    <path d="M127.4,63.5c4.1-1.1,5,5.1,1.8,6s-5-5.1-1.8-6Z" fill="none" stroke="#fff" stroke-miterlimit="10" stroke-width="2"/>
    <path d="M155.7,69.4c-4.5,2.7-7-6.3-1.7-5.9s4,4.6,1.7,5.9Z" fill="none" stroke="#fff" stroke-miterlimit="10" stroke-width="2"/>
    <path d="M190.6,214c4-2.4,7.7,5.8,1.6,5.4s-3.5-4.3-1.6-5.4Z" fill="none" stroke="#fff" stroke-miterlimit="10" stroke-width="2"/>
    <path d="M92.3,74.5c2.1,3.3-3,7.4-5.1,4s3.7-6.2,5.1-4Z" fill="none" stroke="#fff" stroke-miterlimit="10" stroke-width="2"/>
    <path d="M125.6,74.5c.6-.9,5.3-2,5.5,1.6.3,6.1-8.3,2.9-5.5-1.6Z" fill="none" stroke="#fff" stroke-miterlimit="10" stroke-width="2"/>
    <path d="M143.4,79.2c-2.1-.5-4.7.3-5.5-2.4-.4-4.9,8.5-3.9,5.5,2.4Z" fill="none" stroke="#fff" stroke-miterlimit="10" stroke-width="2"/>
    <path d="M112.5,158.6c-2.7-4.3,6.4-7.3,6-1.7s-5.2,2.9-6,1.7Z" fill="none" stroke="#fff" stroke-miterlimit="10" stroke-width="2"/>
    <path d="M92.3,88.8c-1.4,2.2-7.5,0-5.1-4s7.2.7,5.1,4Z" fill="none" stroke="#fff" stroke-miterlimit="10" stroke-width="2"/>
    <path d="M153.6,424.5c3.7-.5,4.1,5.8.5,6.1s-4.5-5.6-.5-6.1Z" fill="none" stroke="#fff" stroke-miterlimit="10" stroke-width="2"/>
    <path d="M179.2,423.8c2-.5,5.2,2.7,2.3,5.2-4.2,3.6-7.1-3.9-2.3-5.2Z" fill="none" stroke="#fff" stroke-miterlimit="10" stroke-width="2"/>
    <path d="M125.7,205c1.2-2,5.7-1.2,5.9,1.7.5,5.3-8.4,2.6-5.9-1.7Z" fill="none" stroke="#fff" stroke-miterlimit="10" stroke-width="2"/>
    <path d="M140.5,374.2c4.4-.9,3.4,5.6,1.8,6.1-4.1.2-6.7-5.1-1.8-6.1Z" fill="none" stroke="#fff" stroke-miterlimit="10" stroke-width="2"/>
    <path d="M139.8,274.1c5.1-1.5,5.6,6.1.6,5.4s-3.3-4.6-.6-5.4Z" fill="none" stroke="#fff" stroke-miterlimit="10" stroke-width="2"/>
    <path d="M114.3,73.9c4.8-1.4,5.5,5.7.5,5.5-3.8-.2-2.9-4.8-.5-5.5Z" fill="none" stroke="#fff" stroke-miterlimit="10" stroke-width="2"/>
    <path d="M153.6,234c3.1-.8,4.1,5.3,1.8,6.1-4.6,1.6-5.8-5-1.8-6.1Z" fill="none" stroke="#fff" stroke-miterlimit="10" stroke-width="2"/>
    <path d="M139.8,414.2c5-1.7,5.8,6.2.6,5.4s-2.8-4.7-.6-5.4Z" fill="none" stroke="#fff" stroke-miterlimit="10" stroke-width="2"/>
    <path d="M164.3,305.2c1.6-1.5,5.4-1.6,5.4,1.6,0,6.1-8.8,1.7-5.4-1.6Z" fill="none" stroke="#fff" stroke-miterlimit="10" stroke-width="2"/>
    <path d="M155.7,259.3c-2.2,2.2-6.2-.7-5-3.3,2-4.5,8,.2,5,3.3Z" fill="none" stroke="#fff" stroke-miterlimit="10" stroke-width="2"/>
    <path d="M104.7,79.1c-4.7,3-7.4-6.3-1.7-5.4s2.9,4.6,1.7,5.4Z" fill="none" stroke="#fff" stroke-miterlimit="10" stroke-width="2"/>
    <path d="M165,254.1c4-2.3,7.1,5.4,1.6,5.4s-3.5-4.3-1.6-5.4Z" fill="none" stroke="#fff" stroke-miterlimit="10" stroke-width="2"/>
    <path d="M127.4,254c5.2-1.6,5.2,6.8,0,5.3s-2.5-4.5,0-5.3Z" fill="none" stroke="#fff" stroke-miterlimit="10" stroke-width="2"/>
    <path d="M139.8,394.2c5.2-1.6,5.2,6.8,0,5.3s-2.5-4.5,0-5.3Z" fill="none" stroke="#fff" stroke-miterlimit="10" stroke-width="2"/>
    <path d="M100.1,188.9c-3-4.8,6.4-7.4,5.5-1.6s-4.6,2.9-5.5,1.6Z" fill="none" stroke="#fff" stroke-miterlimit="10" stroke-width="2"/>
    <path d="M130.2,404.6c1.9,2,.1,6.7-3.3,5s.4-8,3.3-5Z" fill="none" stroke="#fff" stroke-miterlimit="10" stroke-width="2"/>
    <path d="M130.2,419.5c-4.4,2.8-7.4-5.5-2.2-5.4s3.6,4.5,2.2,5.4Z" fill="none" stroke="#fff" stroke-miterlimit="10" stroke-width="2"/>
    <path d="M139.8,354.1c5.1-1.7,5.4,6.9,0,5.3-2.7-.8-2-4.6,0-5.3Z" fill="none" stroke="#fff" stroke-miterlimit="10" stroke-width="2"/>
    <path d="M140.5,403.8c3.9-.7,4.6,8.1-.4,5.7s-2.1-5.3.4-5.7Z" fill="none" stroke="#fff" stroke-miterlimit="10" stroke-width="2"/>
    <path d="M139.1,304.4c6.2-2.1,5.5,6.5.9,5.1s-3-4.5-.9-5.1Z" fill="none" stroke="#fff" stroke-miterlimit="10" stroke-width="2"/>
    <path d="M89.4,154c3.5-.3,4.4,5,1,5.7s-5-5.4-1-5.7Z" fill="none" stroke="#fff" stroke-miterlimit="10" stroke-width="2"/>
    <path d="M143.4,429.2l-3.3.4c-6.2-2.5,4.3-11.5,3.3-.4Z" fill="none" stroke="#fff" stroke-miterlimit="10" stroke-width="2"/>
    <path d="M92.3,148.9c-4.1,2.1-6.7-.5-4.6-4.6,3.4-.8,5.4,1.1,4.6,4.6Z" fill="none" stroke="#fff" stroke-miterlimit="10" stroke-width="2"/>
    <path d="M125.7,398.8c-1.9-3.2,3.2-6.9,5-3.3s-3.5,5.9-5,3.3Z" fill="none" stroke="#fff" stroke-miterlimit="10" stroke-width="2"/>
    <path d="M156.5,279.4l-4.8-.2c-2.9-6.1,8-6.2,4.8.2Z" fill="none" stroke="#fff" stroke-miterlimit="10" stroke-width="2"/>
    <path d="M130.2,364.5c2.6,2.6-1.1,7.2-4,4.3s1.6-6.7,4-4.3Z" fill="none" stroke="#fff" stroke-miterlimit="10" stroke-width="2"/>
    <path d="M140.5,363.8c4.6-1.2,3.5,9.2-1.2,5.1s-1-4.6,1.2-5.1Z" fill="none" stroke="#fff" stroke-miterlimit="10" stroke-width="2"/>
    <path d="M127.4,354.1c3.8-1.1,5,4.4,1.8,5.3-3.8,1.1-5-4.4-1.8-5.3Z" fill="none" stroke="#fff" stroke-miterlimit="10" stroke-width="2"/>
    <path d="M166,434.2c3.8-1.1,5,4.4,1.8,5.3s-5-4.4-1.8-5.3Z" fill="none" stroke="#fff" stroke-miterlimit="10" stroke-width="2"/>
    <path d="M130.3,429.2c-2,1.3-7.1-1-4.1-4.4s6.3,3,4.1,4.4Z" fill="none" stroke="#fff" stroke-miterlimit="10" stroke-width="2"/>
    <path d="M130.2,309c-3.7,3.7-7.4-4.8-2.2-4.7s3.9,3.1,2.2,4.7Z" fill="none" stroke="#fff" stroke-miterlimit="10" stroke-width="2"/>
    <path d="M130.2,384.5c1.2.8,1.2,5.5-2.3,5.1-5-.5-1.9-7.8,2.3-5.1Z" fill="none" stroke="#fff" stroke-miterlimit="10" stroke-width="2"/>
    <path d="M217.1,593.6c1.5-.5,3.1.4,3.6,1.8-1.4,9.1-7.9-.4-3.6-1.8Z" fill="none" stroke="#fff" stroke-miterlimit="10" stroke-width="2"/>
    <path d="M178.4,553.6c3.7-1.2,5.1,4.6,1.8,5.4s-5.1-4.3-1.8-5.4Z" fill="none" stroke="#fff" stroke-miterlimit="10" stroke-width="2"/>
    <path d="M130.2,374.9c2,2-.7,6.4-3.7,4-3.2-2.5,1.3-6.4,3.7-4Z" fill="none" stroke="#fff" stroke-miterlimit="10" stroke-width="2"/>
    <path d="M143.5,384.4l-.6,4.5c-2.2.9-4.2.3-4.6-2.1,1-3,2.8-2,5.3-2.4Z" fill="none" stroke="#fff" stroke-miterlimit="10" stroke-width="2"/>
    <path d="M151.9,638.3c-1.9-1.9.4-6.1,3.3-4.3s-.1,7.4-3.3,4.3Z" fill="none" stroke="#fff" stroke-miterlimit="10" stroke-width="2"/>
    <path d="M155.7,644.2c2.7,2.8-1.6,6.6-4,3.7s1.9-5.8,4-3.7Z" fill="none" stroke="#fff" stroke-miterlimit="10" stroke-width="2"/>
    <path d="M207.5,587.9c-2.8,2.7-6.6-1.6-3.7-4s5.8,1.9,3.7,4Z" fill="none" stroke="#fff" stroke-miterlimit="10" stroke-width="2"/>
    <path d="M130.2,624.1c1.6,2.6-1.5,7-4.1,3.8s3-5.5,4.1-3.8Z" fill="none" stroke="#fff" stroke-miterlimit="10" stroke-width="2"/>
    <path d="M233,587.9c-2.3,2.2-6-.6-4.3-3.3s6.9.8,4.3,3.3Z" fill="none" stroke="#fff" stroke-miterlimit="10" stroke-width="2"/>
    <path d="M152.9,434.9c4.8-1.6,4.3,7.7-.1,4.8s-2-4.1.1-4.8Z" fill="none" stroke="#fff" stroke-miterlimit="10" stroke-width="2"/>
    <path d="M168.9,648c-1.6,2.5-7.3-1.2-3.8-4.1,2.7-2.2,4.9,2.3,3.8,4.1Z" fill="none" stroke="#fff" stroke-miterlimit="10" stroke-width="2"/>
    <path d="M138.7,648c-1.1-1.8,1.1-6.3,3.8-4.1,3.5,2.9-2.2,6.6-3.8,4.1Z" fill="none" stroke="#fff" stroke-miterlimit="10" stroke-width="2"/>
    <path d="M181.3,573.7c.9.6,1.8,4.8-1.6,4.8-5.2,0-2-7.1,1.6-4.8Z" fill="none" stroke="#fff" stroke-miterlimit="10" stroke-width="2"/>
    <path d="M194.4,578.3c-3.5,2.2-6.4-2.5-3.4-4.4s5.3,3.2,3.4,4.4Z" fill="none" stroke="#fff" stroke-miterlimit="10" stroke-width="2"/>
    <path d="M203.6,573.7c3.7-2.3,6.9,4.7,1.6,4.8s-2.6-4.2-1.6-4.8Z" fill="none" stroke="#fff" stroke-miterlimit="10" stroke-width="2"/>
    <path d="M216,578.3c-1.1-1.2.2-7,3.8-4.1s-2.1,6-3.8,4.1Z" fill="none" stroke="#fff" stroke-miterlimit="10" stroke-width="2"/>
    <path d="M194.4,564c2,1.2-.1,6.4-3.4,4.4s-.1-6.6,3.4-4.4Z" fill="none" stroke="#fff" stroke-miterlimit="10" stroke-width="2"/>
    <path d="M190.6,587.9c-2.2-2.2,1.2-7.2,4-3s-2.3,4.6-4,3Z" fill="none" stroke="#fff" stroke-miterlimit="10" stroke-width="2"/>
    <path d="M143.4,788.2c-1.6,2.5-7.3-1.2-3.8-4.1s4.9,2.3,3.8,4.1Z" fill="none" stroke="#fff" stroke-miterlimit="10" stroke-width="2"/>
    <path d="M142.7,743.5c1.4.9.9,6.2-2.2,5.4s-.7-7.3,2.2-5.4Z" fill="none" stroke="#fff" stroke-miterlimit="10" stroke-width="2"/>
    <path d="M191.6,593.7c2.2-.7,4.6,1.4,3,3.8-3,4.5-6.9-2.5-3-3.8Z" fill="none" stroke="#fff" stroke-miterlimit="10" stroke-width="2"/>
    <path d="M127.4,613.7c2.7-.8,4.4,1.9,2.6,4-3.3,3.8-6.8-2.8-2.6-4Z" fill="none" stroke="#fff" stroke-miterlimit="10" stroke-width="2"/>
    <path d="M130.2,454.9c2.2,3.5-2.6,6.4-4.4,3.4s3.4-5,4.4-3.4Z" fill="none" stroke="#fff" stroke-miterlimit="10" stroke-width="2"/>
    <path d="M130.3,604c1.6,8.5-7.6,3.9-3.9,0,.9-.9,2.8-.3,3.9,0Z" fill="none" stroke="#fff" stroke-miterlimit="10" stroke-width="2"/>
    <path d="M130.3,764.1l-.6,4.5c-2.1,1.5-5.4-1.4-3.9-3.9l4.5-.6Z" fill="none" stroke="#fff" stroke-miterlimit="10" stroke-width="2"/>
    <path d="M155.7,594.4c2.7,2.7-2.3,7.3-4.3,2.6s2.5-4.3,4.3-2.6Z" fill="none" stroke="#fff" stroke-miterlimit="10" stroke-width="2"/>
    <path d="M142.7,628.7c-2.5,1.7-6.2-3.4-2.7-5.2,2.9-1.5,4.5,3.9,2.7,5.2Z" fill="none" stroke="#fff" stroke-miterlimit="10" stroke-width="2"/>
    <path d="M130.3,664l-.6,4.5c-2.1,1.5-5.4-1.4-3.9-3.9l4.5-.6Z" fill="none" stroke="#fff" stroke-miterlimit="10" stroke-width="2"/>
    <path d="M138.7,445.2c1.3-2.1,7-.3,4.4,3.4s-6.3-.4-4.4-3.4Z" fill="none" stroke="#fff" stroke-miterlimit="10" stroke-width="2"/>
    <path d="M168.9,547.9c-.9,1.4-5.6,1-4.5-2.7s6.2,0,4.5,2.7Z" fill="none" stroke="#fff" stroke-miterlimit="10" stroke-width="2"/>
    <path d="M155.7,544.1c2.2,2.2-1,6.5-3.8,3.8s1.5-6,3.8-3.8Z" fill="none" stroke="#fff" stroke-miterlimit="10" stroke-width="2"/>
    <path d="M140.5,543.3c3.5-.9,4.1,5.5.6,5.5s-3.4-4.8-.6-5.5Z" fill="none" stroke="#fff" stroke-miterlimit="10" stroke-width="2"/>
    <path d="M179.2,583.3c3.5-.9,4.1,5.5.6,5.5s-3.4-4.8-.6-5.5Z" fill="none" stroke="#fff" stroke-miterlimit="10" stroke-width="2"/>
    <path d="M130.3,563.9l-.6,4.5c-2.1,1.5-5.4-1.4-3.9-3.9l4.5-.6Z" fill="none" stroke="#fff" stroke-miterlimit="10" stroke-width="2"/>
    <path d="M138.7,634.4c1.3-2.1,7-.3,4.4,3.4s-6.3-.4-4.4-3.4Z" fill="none" stroke="#fff" stroke-miterlimit="10" stroke-width="2"/>
    <path d="M155.7,734.6c2.2,2.2-1,6.5-3.8,3.8-2.2-2.2,1.5-6,3.8-3.8Z" fill="none" stroke="#fff" stroke-miterlimit="10" stroke-width="2"/>
    <path d="M165.3,564c5.1-1.7,5.3,5.9.7,4.6s-2.8-4-.7-4.6Z" fill="none" stroke="#fff" stroke-miterlimit="10" stroke-width="2"/>
    <path d="M127.9,523.4c3.7,0,3.3,7.1-1,4.9-2.4-1.2-1.6-4.9,1-4.9Z" fill="none" stroke="#fff" stroke-miterlimit="10" stroke-width="2"/>
    <path d="M130.3,474.8l-.6,4.5c-2.1,1.5-5.4-1.4-3.9-3.9l4.5-.6Z" fill="none" stroke="#fff" stroke-miterlimit="10" stroke-width="2"/>
    <path d="M142.7,533.6c2.1,1.4.1,7-3.4,4.5-2.8-2,1.1-6,3.4-4.5Z" fill="none" stroke="#fff" stroke-miterlimit="10" stroke-width="2"/>
    <path d="M155.7,479.5c-1.7,1.5-5.5,0-4.3-2.6,2.1-4.9,7.1.3,4.3,2.6Z" fill="none" stroke="#fff" stroke-miterlimit="10" stroke-width="2"/>
    <path d="M155.8,538.3c-2.6,1.6-6.8-2.3-3.4-4.4s5,3.4,3.4,4.4Z" fill="none" stroke="#fff" stroke-miterlimit="10" stroke-width="2"/>
    <path d="M179.1,543.3c3.1-.8,4.1,5.5.6,5.5-2.8,0-3.4-4.8-.6-5.5Z" fill="none" stroke="#fff" stroke-miterlimit="10" stroke-width="2"/>
    <path d="M233,547.8c-1.6,1.6-4.6.5-4.5-2.1.4-4.9,7.5-.9,4.5,2.1Z" fill="none" stroke="#fff" stroke-miterlimit="10" stroke-width="2"/>
    <path d="M155.7,654.5c1.7,1.7.1,6-3,4s.8-6.1,3-4Z" fill="none" stroke="#fff" stroke-miterlimit="10" stroke-width="2"/>
    <path d="M166,653.8c2.6-.7,3.6,1.2,2.8,3.5-1.5,4.9-7.6-2.2-2.8-3.5Z" fill="none" stroke="#fff" stroke-miterlimit="10" stroke-width="2"/>
    <path d="M153.6,553.6c4-.5,3.1,5.5-.2,5.3s-4.1-4.7.2-5.3Z" fill="none" stroke="#fff" stroke-miterlimit="10" stroke-width="2"/>
    <path d="M140.4,483.2c2.1-.4,4,2.3,2.4,4.4-2.9,3.8-6.4-3.7-2.4-4.4Z" fill="none" stroke="#fff" stroke-miterlimit="10" stroke-width="2"/>
    <path d="M130.2,744.2c2.2,3.5-2.6,6.4-4.4,3.4-1.8-3,3.3-5.2,4.4-3.4Z" fill="none" stroke="#fff" stroke-miterlimit="10" stroke-width="2"/>
    <path d="M152.9,624.1c3.3-.9,4.9,3.8,1.8,4.6-3.5,1-5.1-3.7-1.8-4.6Z" fill="none" stroke="#fff" stroke-miterlimit="10" stroke-width="2"/>
    <path d="M155.8,470c-2.7.7-5.7-.9-4.2-3.8,3.7-1.2,5.4-.3,4.2,3.8Z" fill="none" stroke="#fff" stroke-miterlimit="10" stroke-width="2"/>
    <path d="M178.1,568.6c-2.8-1.7,0-6.7,3.4-4.4,2.3,1.6-.9,5.9-3.4,4.4Z" fill="none" stroke="#fff" stroke-miterlimit="10" stroke-width="2"/>
    <path d="M233.1,564c1.8,1.1-.4,6.3-3.4,4.4s-.2-6.6,3.4-4.4Z" fill="none" stroke="#fff" stroke-miterlimit="10" stroke-width="2"/>
    <path d="M130.3,434.9c.7.9.6,5-2.2,4.6-6-.8-.3-7.5,2.2-4.6Z" fill="none" stroke="#fff" stroke-miterlimit="10" stroke-width="2"/>
    <path d="M140.4,434.2c2.1-.4,4,2.3,2.4,4.4-2.9,3.8-6.4-3.7-2.4-4.4Z" fill="none" stroke="#fff" stroke-miterlimit="10" stroke-width="2"/>
    <path d="M125.6,724.9c1.7-2.8,6.7,0,4.4,3.4s-5.9-.9-4.4-3.4Z" fill="none" stroke="#fff" stroke-miterlimit="10" stroke-width="2"/>
    <path d="M155.7,498.1c-2.3,2-6.1-1.6-3.8-3.8,3-2.9,5.9,2,3.8,3.8Z" fill="none" stroke="#fff" stroke-miterlimit="10" stroke-width="2"/>
    <path d="M155.7,718.4c-2.1,2.1-6.7-1.5-3-4s4.6,2.3,3,4Z" fill="none" stroke="#fff" stroke-miterlimit="10" stroke-width="2"/>
    <path d="M140.4,583.3c2.1-.4,4,2.3,2.4,4.4-2.9,3.8-6.4-3.7-2.4-4.4Z" fill="none" stroke="#fff" stroke-miterlimit="10" stroke-width="2"/>
    <path d="M220.7,584.7c1.5,2.5-2.8,5.6-4.4,3.4-2.3-3.3,2.7-6.2,4.4-3.4Z" fill="none" stroke="#fff" stroke-miterlimit="10" stroke-width="2"/>
    <path d="M130.3,704l-.6,4.5c-5.5,1.3-5.6-6.5.6-4.5Z" fill="none" stroke="#fff" stroke-miterlimit="10" stroke-width="2"/>
    <path d="M130.3,503.9c.6.7.7,5.6-2.7,4.5-5.1-1.6.5-7,2.7-4.5Z" fill="none" stroke="#fff" stroke-miterlimit="10" stroke-width="2"/>
    <path d="M155.7,455.7c1.7,1.7.1,6-3,4s.8-6.1,3-4Z" fill="none" stroke="#fff" stroke-miterlimit="10" stroke-width="2"/>
    <path d="M138.7,594.4c1.2-2,6.4.1,4.4,3.4s-6.2-.6-4.4-3.4Z" fill="none" stroke="#fff" stroke-miterlimit="10" stroke-width="2"/>
    <path d="M179.2,593.7c4.6-1.1,2.9,7.9-.9,4.8s-1.1-4.3.9-4.8Z" fill="none" stroke="#fff" stroke-miterlimit="10" stroke-width="2"/>
    <path d="M165,538.3c-1.2-.7-1-4,1.1-4.6,5.1-1.5,3.2,7.3-1.1,4.6Z" fill="none" stroke="#fff" stroke-miterlimit="10" stroke-width="2"/>
    <path d="M142.6,698.4c-2.9,3.1-6.7-5-1.5-4.6s3,3,1.5,4.6Z" fill="none" stroke="#fff" stroke-miterlimit="10" stroke-width="2"/>
    <path d="M220,538.3c-4.2,2.7-6.2-6.1-1.1-4.6,2.1.6,2.2,3.9,1.1,4.6Z" fill="none" stroke="#fff" stroke-miterlimit="10" stroke-width="2"/>
    <path d="M229.2,538.3c-1.6-1,0-6.5,3.4-4.4s-.6,6.1-3.4,4.4Z" fill="none" stroke="#fff" stroke-miterlimit="10" stroke-width="2"/>
    <path d="M130.2,644.1c.9,1.5.4,4.9-2.2,4.5-5.9-.8.4-7.5,2.2-4.5Z" fill="none" stroke="#fff" stroke-miterlimit="10" stroke-width="2"/>
    <path d="M152.9,445.3c4.7-1.3,4.1,6.7-.5,4.4s-1.7-3.8.5-4.4Z" fill="none" stroke="#fff" stroke-miterlimit="10" stroke-width="2"/>
    <path d="M140.5,454.2c3.3-.8,4.3,5.2.6,5.2s-3.2-4.6-.6-5.2Z" fill="none" stroke="#fff" stroke-miterlimit="10" stroke-width="2"/>
    <path d="M155.8,604c2,5.2-4.4,7.2-4.5,1.3,1-1.5,2.8-1.6,4.5-1.3Z" fill="none" stroke="#fff" stroke-miterlimit="10" stroke-width="2"/>
    <path d="M166,454.2c3.1-.9,4.2,4.8,1.2,5.4s-3.8-4.6-1.2-5.4Z" fill="none" stroke="#fff" stroke-miterlimit="10" stroke-width="2"/>
    <path d="M165,604c4.2-2.7,6.2,6.1,1.1,4.6-2.1-.6-2.2-3.9-1.1-4.6Z" fill="none" stroke="#fff" stroke-miterlimit="10" stroke-width="2"/>
    <path d="M168.2,479.6c-2.2,1.5-5.9-2.8-3.4-4.5,3.7-2.6,5.4,3.1,3.4,4.5Z" fill="none" stroke="#fff" stroke-miterlimit="10" stroke-width="2"/>
    <path d="M125.6,517.6c-1.5-2.2,2.8-5.9,4.5-3.4,2.6,3.7-3.1,5.4-4.5,3.4Z" fill="none" stroke="#fff" stroke-miterlimit="10" stroke-width="2"/>
    <path d="M155.8,503.9c1.9,1.2-.6,7.1-3.9,3.9-2.5-2.5,1.9-5.1,3.9-3.9Z" fill="none" stroke="#fff" stroke-miterlimit="10" stroke-width="2"/>
    <path d="M130.2,544c.9,1.5.4,4.9-2.2,4.5-5.9-.8.4-7.5,2.2-4.5Z" fill="none" stroke="#fff" stroke-miterlimit="10" stroke-width="2"/>
    <path d="M165,638.4c-1.2-.7-1-4,1.1-4.6,5.1-1.5,3.2,7.3-1.1,4.6Z" fill="none" stroke="#fff" stroke-miterlimit="10" stroke-width="2"/>
    <path d="M165,449.2c-1.2-.7-1-4,1.1-4.6,5.1-1.5,3.2,7.3-1.1,4.6Z" fill="none" stroke="#fff" stroke-miterlimit="10" stroke-width="2"/>
    <path d="M152.9,513.6c4.7-1.3,4.1,6.7-.5,4.4-2-1-1.7-3.8.5-4.4Z" fill="none" stroke="#fff" stroke-miterlimit="10" stroke-width="2"/>
    <path d="M204.7,543.2c3.1-.9,4.2,4.8,1.2,5.4-3.4.6-3.8-4.6-1.2-5.4Z" fill="none" stroke="#fff" stroke-miterlimit="10" stroke-width="2"/>
    <path d="M130.3,638.5c-5.8,1.1-6.7-5.6-.6-4.5l.6,4.5Z" fill="none" stroke="#fff" stroke-miterlimit="10" stroke-width="2"/>
    <path d="M191.6,513.6c3.3-1.1,5.2,3.7,1.8,4.7-3.6,1-4.4-3.8-1.8-4.7Z" fill="none" stroke="#fff" stroke-miterlimit="10" stroke-width="2"/>
    <path d="M140.4,683.4c3.2-.6,4.5,5,.5,5.3s-3.1-4.8-.5-5.3Z" fill="none" stroke="#fff" stroke-miterlimit="10" stroke-width="2"/>
    <path d="M142.7,773.8c2,1.3.3,7-3.4,4.5s1.2-5.9,3.4-4.5Z" fill="none" stroke="#fff" stroke-miterlimit="10" stroke-width="2"/>
    <path d="M130.3,778.6c-5.8,1.1-6.7-5.6-.6-4.5l.6,4.5Z" fill="none" stroke="#fff" stroke-miterlimit="10" stroke-width="2"/>
    <path d="M152.9,584c4.8-1.3,4.3,6.4-.3,4.2s-1.9-3.6.3-4.2Z" fill="none" stroke="#fff" stroke-miterlimit="10" stroke-width="2"/>
    <path d="M220.7,524.6c1.5,2.2-2.8,5.9-4.5,3.4-2.6-3.7,3.1-5.4,4.5-3.4Z" fill="none" stroke="#fff" stroke-miterlimit="10" stroke-width="2"/>
    <path d="M130.3,588c-.5.8-3.3.7-4.1-.2-3-5.4,6-5.8,4.1.2Z" fill="none" stroke="#fff" stroke-miterlimit="10" stroke-width="2"/>
    <path d="M142.7,613.7c2,1.3.3,7-3.4,4.5-2.4-1.7,1.2-5.9,3.4-4.5Z" fill="none" stroke="#fff" stroke-miterlimit="10" stroke-width="2"/>
    <path d="M155.7,618.3c-2.2,1.9-6.8-1.5-3-4s4.6,2.7,3,4Z" fill="none" stroke="#fff" stroke-miterlimit="10" stroke-width="2"/>
    <path d="M127.4,653.8c2.8-.8,3.9,2,2.6,4-2.2,3.6-7-2.8-2.6-4Z" fill="none" stroke="#fff" stroke-miterlimit="10" stroke-width="2"/>
    <path d="M142.7,713.8c2,1.3.3,7-3.4,4.5s1.2-5.9,3.4-4.5Z" fill="none" stroke="#fff" stroke-miterlimit="10" stroke-width="2"/>
    <path d="M229.2,578.3c-1.6-1,0-6.5,3.4-4.4,3,1.8-.6,6.1-3.4,4.4Z" fill="none" stroke="#fff" stroke-miterlimit="10" stroke-width="2"/>
    <path d="M165,578.3c-1.2-.7-1-4,1.1-4.6,5.1-1.5,3.2,7.3-1.1,4.6Z" fill="none" stroke="#fff" stroke-miterlimit="10" stroke-width="2"/>
    <path d="M155.8,578.3c-1.7.3-3.5.2-4.5-1.3,0-5.8,6.5-3.9,4.5,1.3Z" fill="none" stroke="#fff" stroke-miterlimit="10" stroke-width="2"/>
    <path d="M142.7,573.6c2,1.3.3,7-3.4,4.5s1.2-5.9,3.4-4.5Z" fill="none" stroke="#fff" stroke-miterlimit="10" stroke-width="2"/>
    <path d="M142.7,768.9c-2.2,1.5-5.9-2.8-3.4-4.5,3.7-2.6,5.4,3.1,3.4,4.5Z" fill="none" stroke="#fff" stroke-miterlimit="10" stroke-width="2"/>
    <path d="M142.7,464.5c.8.6,1.8,4.9-1.6,4.8-5.5-.2-1.5-6.9,1.6-4.8Z" fill="none" stroke="#fff" stroke-miterlimit="10" stroke-width="2"/>
    <path d="M142.7,673.7c2,1.3.3,7-3.4,4.5s1.2-5.9,3.4-4.5Z" fill="none" stroke="#fff" stroke-miterlimit="10" stroke-width="2"/>
    <path d="M130.3,678.5c-5.8,1.1-6.7-5.6-.6-4.5l.6,4.5Z" fill="none" stroke="#fff" stroke-miterlimit="10" stroke-width="2"/>
    <path d="M138.7,494.3c.7-1.2,4-1,4.6,1.1,1.5,5.1-7.3,3.2-4.6-1.1Z" fill="none" stroke="#fff" stroke-miterlimit="10" stroke-width="2"/>
    <path d="M127.4,493.6c2.8-.8,3.9,2,2.6,4-2.2,3.6-7-2.8-2.6-4Z" fill="none" stroke="#fff" stroke-miterlimit="10" stroke-width="2"/>
    <path d="M203.6,568.7c-2-1.3-.3-7,3.4-4.5,2.4,1.7-1.2,5.9-3.4,4.5Z" fill="none" stroke="#fff" stroke-miterlimit="10" stroke-width="2"/>
    <path d="M127.4,753.9c2.8-.8,3.9,2,2.6,4-2.2,3.6-7-2.8-2.6-4Z" fill="none" stroke="#fff" stroke-miterlimit="10" stroke-width="2"/>
    <path d="M130.3,738.6c-5.8,1.1-6.7-5.6-.6-4.5l.6,4.5Z" fill="none" stroke="#fff" stroke-miterlimit="10" stroke-width="2"/>
    <path d="M138.7,734.5c.7-1.2,4-1,4.6,1.1,1.5,5.1-7.3,3.2-4.6-1.1Z" fill="none" stroke="#fff" stroke-miterlimit="10" stroke-width="2"/>
    <path d="M155.8,564c2,5.2-4.4,7.2-4.5,1.3,1-1.5,2.8-1.6,4.5-1.3Z" fill="none" stroke="#fff" stroke-miterlimit="10" stroke-width="2"/>
    <path d="M165,738.5c-1.2-.7-1-4,1.1-4.6,5.1-1.5,3.2,7.3-1.1,4.6Z" fill="none" stroke="#fff" stroke-miterlimit="10" stroke-width="2"/>
    <path d="M142.7,568.7c-2.2,1.5-5.9-2.8-3.4-4.5,3.7-2.6,5.4,3.1,3.4,4.5Z" fill="none" stroke="#fff" stroke-miterlimit="10" stroke-width="2"/>
    <path d="M233,554.4c2.8,2.7-2.6,5.9-4.3,2.6s2.3-4.6,4.3-2.6Z" fill="none" stroke="#fff" stroke-miterlimit="10" stroke-width="2"/>
    <path d="M142.7,668.8c-2.2,1.5-5.9-2.8-3.4-4.5,3.7-2.6,5.4,3.1,3.4,4.5Z" fill="none" stroke="#fff" stroke-miterlimit="10" stroke-width="2"/>
    <path d="M153.6,483.2c3.6-.6,3.6,7.7-.8,4.8s-1.2-4.5.8-4.8Z" fill="none" stroke="#fff" stroke-miterlimit="10" stroke-width="2"/>
    <path d="M130.3,487.9c-.5.8-3.3.7-4.1-.2-3-5.4,6-5.8,4.1.2Z" fill="none" stroke="#fff" stroke-miterlimit="10" stroke-width="2"/>
    <path d="M130.3,538.4c-5.8,1.1-6.7-5.6-.6-4.5l.6,4.5Z" fill="none" stroke="#fff" stroke-miterlimit="10" stroke-width="2"/>
    <path d="M152.9,744.2c4.7-1.3,4.1,6.7-.5,4.4s-1.7-3.8.5-4.4Z" fill="none" stroke="#fff" stroke-miterlimit="10" stroke-width="2"/>
    <path d="M139.8,474.9c4.5-1.5,4.7,4,1.8,4.7s-4.3-3.9-1.8-4.7Z" fill="none" stroke="#fff" stroke-miterlimit="10" stroke-width="2"/>
    <path d="M139.8,523.9c4.5-1.5,4.7,4,1.8,4.7s-4.3-3.9-1.8-4.7Z" fill="none" stroke="#fff" stroke-miterlimit="10" stroke-width="2"/>
    <path d="M128.1,693.8c2.5-.3,3,2.3,1.9,4-2.3,3.7-7.5-3.3-1.9-4Z" fill="none" stroke="#fff" stroke-miterlimit="10" stroke-width="2"/>
    <path d="M166.7,483.2c2.7-.5,3.3,5.5-.1,5.5s-2.5-5,.1-5.5Z" fill="none" stroke="#fff" stroke-miterlimit="10" stroke-width="2"/>
    <path d="M191.6,533.6c3.1-1,5.1,3.7,1.8,4.7s-4.4-3.8-1.8-4.7Z" fill="none" stroke="#fff" stroke-miterlimit="10" stroke-width="2"/>
    <path d="M207.6,594.4c2.4,3.8-5,6.4-4.7,1.6s3.9-2.8,4.7-1.6Z" fill="none" stroke="#fff" stroke-miterlimit="10" stroke-width="2"/>
    <path d="M178.4,624.1c4.5-1.5,4.7,4,1.8,4.7s-4.3-3.9-1.8-4.7Z" fill="none" stroke="#fff" stroke-miterlimit="10" stroke-width="2"/>
    <path d="M128.1,593.7c2.5-.3,3,2.3,1.9,4-2.3,3.7-7.5-3.3-1.9-4Z" fill="none" stroke="#fff" stroke-miterlimit="10" stroke-width="2"/>
    <path d="M220.6,557.6c-1.7,2.9-6.5-.2-4.6-3.2s6.4.3,4.6,3.2Z" fill="none" stroke="#fff" stroke-miterlimit="10" stroke-width="2"/>
    <path d="M217.1,564c3.3-1.1,5.3,3.7,1.9,4.7-3.8,1.1-3.8-4-1.9-4.7Z" fill="none" stroke="#fff" stroke-miterlimit="10" stroke-width="2"/>
    <path d="M139.8,604c4.5-1.5,4.7,4,1.8,4.7s-4.3-3.9-1.8-4.7Z" fill="none" stroke="#fff" stroke-miterlimit="10" stroke-width="2"/>
    <path d="M191.5,553.6c3.3-1.1,5.3,3.7,1.9,4.7s-3.8-4-1.9-4.7Z" fill="none" stroke="#fff" stroke-miterlimit="10" stroke-width="2"/>
    <path d="M165.3,523.9c4.5-1.5,4.7,4,1.8,4.7s-4.3-3.9-1.8-4.7Z" fill="none" stroke="#fff" stroke-miterlimit="10" stroke-width="2"/>
    <path d="M166,553.7c4.5-1.3,3.9,6.6-.5,4.4-2.1-1-1.6-3.8.5-4.4Z" fill="none" stroke="#fff" stroke-miterlimit="10" stroke-width="2"/>
    <path d="M165.3,724.2c4.5-1.5,4.7,4,1.8,4.7s-4.3-3.9-1.8-4.7Z" fill="none" stroke="#fff" stroke-miterlimit="10" stroke-width="2"/>
    <path d="M151.9,724.9c3.2-3.1,6.6,2.8,2.8,3.9s-4.7-2-2.8-3.9Z" fill="none" stroke="#fff" stroke-miterlimit="10" stroke-width="2"/>
    <path d="M139.8,503.9c4.5-1.5,4.7,4,1.8,4.7s-4.3-3.9-1.8-4.7Z" fill="none" stroke="#fff" stroke-miterlimit="10" stroke-width="2"/>
    <path d="M139.8,724.2c4.5-1.5,4.7,4,1.8,4.7s-4.3-3.9-1.8-4.7Z" fill="none" stroke="#fff" stroke-miterlimit="10" stroke-width="2"/>
    <path d="M166,464.6c4.5-1.3,3.9,6.6-.5,4.4s-1.6-3.8.5-4.4Z" fill="none" stroke="#fff" stroke-miterlimit="10" stroke-width="2"/>
    <path d="M127.4,464.6c4.5-1.3,3.9,6.6-.5,4.4-2.1-1-1.6-3.8.5-4.4Z" fill="none" stroke="#fff" stroke-miterlimit="10" stroke-width="2"/>
    <path d="M127.4,573.7c4.5-1.3,3.9,6.6-.5,4.4-2.1-1-1.6-3.8.5-4.4Z" fill="none" stroke="#fff" stroke-miterlimit="10" stroke-width="2"/>
    <path d="M178.4,523.9c4.5-1.5,4.7,4,1.8,4.7s-4.3-3.9-1.8-4.7Z" fill="none" stroke="#fff" stroke-miterlimit="10" stroke-width="2"/>
    <path d="M139.8,704.1c4.5-1.5,4.7,4,1.8,4.7s-4.3-3.9-1.8-4.7Z" fill="none" stroke="#fff" stroke-miterlimit="10" stroke-width="2"/>
    <path d="M130.3,788.2c-.8,1.3-6.4.5-4.1-3.1,2.7-4.1,5.3,1.1,4.1,3.1Z" fill="none" stroke="#fff" stroke-miterlimit="10" stroke-width="2"/>
    <path d="M142.7,513.6c.8.5,1.8,4.9-1.6,4.7-5.4-.2-1.1-6.5,1.6-4.7Z" fill="none" stroke="#fff" stroke-miterlimit="10" stroke-width="2"/>
    <path d="M127.4,713.8c4.5-1.3,3.9,6.6-.5,4.4-2.1-1-1.6-3.8.5-4.4Z" fill="none" stroke="#fff" stroke-miterlimit="10" stroke-width="2"/>
    <path d="M127.4,444.6c4.5-1.3,3.9,6.6-.5,4.4-2.1-1-1.6-3.8.5-4.4Z" fill="none" stroke="#fff" stroke-miterlimit="10" stroke-width="2"/>
    <path d="M130.3,688.1c-.8,1.3-6.4.5-4.1-3.1s5.3,1.1,4.1,3.1Z" fill="none" stroke="#fff" stroke-miterlimit="10" stroke-width="2"/>
    <path d="M166.7,583.3c2.7-.5,3.3,5.5-.1,5.5-3.4,0-2.5-5,.1-5.5Z" fill="none" stroke="#fff" stroke-miterlimit="10" stroke-width="2"/>
    <path d="M168.2,613.7c1.2.8,1.5,6.5-2.7,4.4s.6-5.9,2.7-4.4Z" fill="none" stroke="#fff" stroke-miterlimit="10" stroke-width="2"/>
    <path d="M178,613.7c2.1-1.4,6.2,2.7,2.7,4.4s-3.9-3.6-2.7-4.4Z" fill="none" stroke="#fff" stroke-miterlimit="10" stroke-width="2"/>
    <path d="M203.6,524c3-1.9,6.1,2.7,2.7,4.4s-4.3-3.4-2.7-4.4Z" fill="none" stroke="#fff" stroke-miterlimit="10" stroke-width="2"/>
    <path d="M138.7,557.6c-1.4-2.1,2.7-6.2,4.4-2.7s-3.6,3.9-4.4,2.7Z" fill="none" stroke="#fff" stroke-miterlimit="10" stroke-width="2"/>
    <path d="M181.3,498.2c-3,1.9-6.1-2.7-2.7-4.4s4.3,3.4,2.7,4.4Z" fill="none" stroke="#fff" stroke-miterlimit="10" stroke-width="2"/>
    <path d="M203.6,518.2c-1.6-1-.4-6,2.7-4.4s.3,6.3-2.7,4.4Z" fill="none" stroke="#fff" stroke-miterlimit="10" stroke-width="2"/>
    <path d="M178,513.6c2.1-1.4,6.2,2.7,2.7,4.4s-3.9-3.6-2.7-4.4Z" fill="none" stroke="#fff" stroke-miterlimit="10" stroke-width="2"/>
    <path d="M216,547.9c-1.6-2.6,2.5-6.8,4.4-2.7s-3.6,3.9-4.4,2.7Z" fill="none" stroke="#fff" stroke-miterlimit="10" stroke-width="2"/>
    <path d="M168.2,513.6c1.2.8,1.5,6.5-2.7,4.4s.6-5.9,2.7-4.4Z" fill="none" stroke="#fff" stroke-miterlimit="10" stroke-width="2"/>
    <path d="M194.4,547.8c-1.7,1.6-5,.7-3.8-2.8s6.2.4,3.8,2.8Z" fill="none" stroke="#fff" stroke-miterlimit="10" stroke-width="2"/>
    <path d="M152.9,524c5-1.4,3.9,6.8-.2,4.1s-2.3-3.4.2-4.1Z" fill="none" stroke="#fff" stroke-miterlimit="10" stroke-width="2"/>
    <path d="M181.3,538.3c-3,1.9-6.1-2.7-2.7-4.4s4.3,3.4,2.7,4.4Z" fill="none" stroke="#fff" stroke-miterlimit="10" stroke-width="2"/>
    <path d="M138.7,657.7c-1.4-2.1,2.7-6.2,4.4-2.7s-3.6,3.9-4.4,2.7Z" fill="none" stroke="#fff" stroke-miterlimit="10" stroke-width="2"/>
    <path d="M168.9,494.3c1.9,3-2.7,6.1-4.4,2.7s3.4-4.3,4.4-2.7Z" fill="none" stroke="#fff" stroke-miterlimit="10" stroke-width="2"/>
    <path d="M130.3,554.3c1.6,2.6-2.5,6.8-4.4,2.7s3.6-3.9,4.4-2.7Z" fill="none" stroke="#fff" stroke-miterlimit="10" stroke-width="2"/>
    <path d="M203.6,538.3c-1.6-1-.4-6,2.7-4.4s.3,6.3-2.7,4.4Z" fill="none" stroke="#fff" stroke-miterlimit="10" stroke-width="2"/>
    <path d="M181.3,604c1.6,1,.4,6-2.7,4.4s-.3-6.3,2.7-4.4Z" fill="none" stroke="#fff" stroke-miterlimit="10" stroke-width="2"/>
    <path d="M181.3,503.9c1.6,1,.4,6-2.7,4.4s-.3-6.3,2.7-4.4Z" fill="none" stroke="#fff" stroke-miterlimit="10" stroke-width="2"/>
    <path d="M168.9,594.4c1.9,3-2.7,6.1-4.4,2.7s3.4-4.3,4.4-2.7Z" fill="none" stroke="#fff" stroke-miterlimit="10" stroke-width="2"/>
    <path d="M165,503.9c3-1.9,6.1,2.7,2.7,4.4s-4.3-3.4-2.7-4.4Z" fill="none" stroke="#fff" stroke-miterlimit="10" stroke-width="2"/>
    <path d="M138.7,757.8c-1.4-2.1,2.7-6.2,4.4-2.7s-3.6,3.9-4.4,2.7Z" fill="none" stroke="#fff" stroke-miterlimit="10" stroke-width="2"/>
    <path d="M166,624.1c4-1.1,3.7,4,1.1,4.6s-4.3-3.7-1.1-4.6Z" fill="none" stroke="#fff" stroke-miterlimit="10" stroke-width="2"/>
    <path d="M207.6,557.6c-1,1.5-6.3,1.1-4.5-2.7s5.9.5,4.5,2.7Z" fill="none" stroke="#fff" stroke-miterlimit="10" stroke-width="2"/>
    <path d="M193.7,528.5c-3.8,2.2-5.1-5.9-.4-4.6s1.6,3.8.4,4.6Z" fill="none" stroke="#fff" stroke-miterlimit="10" stroke-width="2"/>
    <path d="M391.3,302.9c-.3,2.5.7,5.5-2.1,6.9,1.7-3.2-3.1-7.1,2.1-6.9Z" fill="none" stroke="#fff" stroke-miterlimit="10" stroke-width="2"/>
    <path d="M397.4,278.8" fill="none" stroke="#fff" stroke-miterlimit="10" stroke-width="2"/>
    <path d="M397.4,278.8" fill="none" stroke="#fff" stroke-miterlimit="10" stroke-width="2"/>
    <path d="M401.1,271" fill="none" stroke="#fff" stroke-miterlimit="10" stroke-width="2"/>
    <path d="M368.2,388.6c8.5-35.7,30.7-75.5,54-103.5,18.8-18,14.1-13.7,39.2-17.6" fill="none" stroke="#fff" stroke-miterlimit="10" stroke-width="2"/>
    <path d="M350.9,390.6l1.8-42c5.1-21.6,40.1-82.7,68-95.9l1,4c2-1.9,32.6-6.5,35.9-7.2" fill="none" stroke="#fff" stroke-miterlimit="10" stroke-width="2"/>
    <polyline points="372.7 382 377 359.4 405.3 308.6 422.2 285 437.8 280.2" fill="none" stroke="#fff" stroke-miterlimit="10" stroke-width="2"/>
  </g>
  <g id="poi">
    <path id="onkel_dannys" d="M319.3,441.5c0,8.7-8.5,21.7-15.8,21.7s-15.8-13-15.8-21.7,7.1-15.8,15.8-15.8,15.8,7.1,15.8,15.8Z" fill="#ece600"/>
    <path id="assistens" d="M349.6,257.6c0,8.7-8.5,21.7-15.8,21.7s-15.8-13-15.8-21.7,7.1-15.8,15.8-15.8,15.8,7.1,15.8,15.8Z" fill="#ece600"/>
    <path id="dan_turells_plads" d="M425.9,356.9c0,8.7-8.5,21.7-15.8,21.7s-15.8-13-15.8-21.7,7.1-15.8,15.8-15.8,15.8,7.1,15.8,15.8Z" fill="#ece600"/>
    <path id="palae" d="M463.3,317.9c0,8.7-8.5,21.7-15.8,21.7s-15.8-13-15.8-21.7,7.1-15.8,15.8-15.8,15.8,7.1,15.8,15.8Z" fill="#ece600"/>
    <path id="istedgade" d="M374,426.7c0,8.7-8.5,21.7-15.8,21.7s-15.8-13-15.8-21.7,7.1-15.8,15.8-15.8,15.8,7.1,15.8,15.8Z" fill="#ece600"/>
  </g>
</svg>